<svg width="165" height="83" viewBox="0 0 165 83" fill="none" xmlns="http://www.w3.org/2000/svg">
<path d="M9.07656 39.73C8.96989 39.6126 8.81523 39.49 8.61256 39.362C8.40989 39.2233 8.16989 39.0953 7.89256 38.978C7.61523 38.8606 7.31656 38.7646 6.99656 38.69C6.67656 38.6153 6.34589 38.578 6.00456 38.578C5.25789 38.578 4.70323 38.7166 4.34056 38.994C3.97789 39.2713 3.79656 39.6553 3.79656 40.146C3.79656 40.5086 3.89789 40.7966 4.10056 41.01C4.30323 41.2126 4.61256 41.3833 5.02856 41.522C5.44456 41.6606 5.96723 41.81 6.59656 41.97C7.36456 42.1513 8.03123 42.37 8.59656 42.626C9.16189 42.8713 9.59389 43.202 9.89256 43.618C10.1912 44.034 10.3406 44.5833 10.3406 45.266C10.3406 45.842 10.2339 46.338 10.0206 46.754C9.80723 47.17 9.50856 47.5113 9.12456 47.778C8.74056 48.034 8.29789 48.226 7.79656 48.354C7.29523 48.4713 6.75656 48.53 6.18056 48.53C5.61523 48.53 5.04989 48.4713 4.48456 48.354C3.92989 48.2366 3.39656 48.066 2.88456 47.842C2.38323 47.6073 1.91923 47.3246 1.49256 46.994L2.30856 45.458C2.44723 45.5966 2.64456 45.7513 2.90056 45.922C3.16723 46.082 3.47123 46.2366 3.81256 46.386C4.16456 46.5353 4.54323 46.6633 4.94856 46.77C5.36456 46.866 5.78589 46.914 6.21256 46.914C6.92723 46.914 7.47123 46.7913 7.84456 46.546C8.22856 46.29 8.42056 45.9273 8.42056 45.458C8.42056 45.074 8.29789 44.77 8.05256 44.546C7.80723 44.3113 7.44989 44.114 6.98056 43.954C6.51123 43.794 5.95123 43.634 5.30056 43.474C4.55389 43.2713 3.92989 43.0526 3.42856 42.818C2.92723 42.5726 2.54856 42.2633 2.29256 41.89C2.04723 41.506 1.92456 41.0206 1.92456 40.434C1.92456 39.6873 2.10589 39.058 2.46856 38.546C2.83123 38.0233 3.32189 37.634 3.94056 37.378C4.56989 37.1113 5.27389 36.978 6.05256 36.978C6.56456 36.978 7.04989 37.0366 7.50856 37.154C7.96723 37.2606 8.39389 37.41 8.78856 37.602C9.19389 37.794 9.56189 38.0126 9.89256 38.258L9.07656 39.73ZM27.6098 46.834V48.418H19.8178V37.058H27.4658V38.642H21.6098V41.874H26.6818V43.362H21.6098V46.834H27.6098ZM37.1384 48.418V37.058H38.9304V46.834H45.0264V48.418H37.1384ZM61.9542 46.834V48.418H54.1622V37.058H61.8102V38.642H55.9542V41.874H61.0262V43.362H55.9542V46.834H61.9542ZM70.5597 42.658C70.5597 41.9646 70.6824 41.2873 70.9277 40.626C71.173 39.954 71.5304 39.346 71.9997 38.802C72.4797 38.2473 73.061 37.81 73.7437 37.49C74.4264 37.1593 75.1997 36.994 76.0637 36.994C77.0877 36.994 77.973 37.2286 78.7197 37.698C79.4664 38.1566 80.021 38.7486 80.3837 39.474L78.9757 40.418C78.7624 39.9593 78.4904 39.5966 78.1597 39.33C77.8397 39.0633 77.4877 38.8766 77.1037 38.77C76.7304 38.6633 76.3624 38.61 75.9997 38.61C75.4024 38.61 74.8797 38.7326 74.4317 38.978C73.9837 39.2126 73.605 39.5273 73.2957 39.922C72.997 40.3166 72.7677 40.7593 72.6077 41.25C72.4584 41.7406 72.3837 42.2313 72.3837 42.722C72.3837 43.266 72.4744 43.794 72.6557 44.306C72.837 44.8073 73.0877 45.2553 73.4077 45.65C73.7384 46.034 74.1277 46.338 74.5757 46.562C75.0237 46.786 75.5144 46.898 76.0477 46.898C76.4104 46.898 76.789 46.834 77.1837 46.706C77.5784 46.578 77.941 46.3806 78.2717 46.114C78.613 45.8366 78.8797 45.474 79.0717 45.026L80.5597 45.874C80.325 46.4393 79.957 46.9193 79.4557 47.314C78.965 47.7086 78.4104 48.0073 77.7917 48.21C77.1837 48.4126 76.581 48.514 75.9837 48.514C75.1837 48.514 74.453 48.3486 73.7917 48.018C73.1304 47.6766 72.5597 47.2286 72.0797 46.674C71.5997 46.1086 71.2264 45.4793 70.9597 44.786C70.693 44.082 70.5597 43.3726 70.5597 42.658ZM98.2332 38.642H94.4572V48.418H92.6492V38.642H88.8572V37.058H98.2332V38.642Z" fill="#0E1F3C"/>
<path fill-rule="evenodd" clip-rule="evenodd" d="M117.975 42.418C117.975 42.65 118.067 42.8726 118.231 43.0367C118.395 43.2008 118.618 43.293 118.85 43.293H128.987L125.23 47.0485C125.066 47.2128 124.974 47.4356 124.974 47.668C124.974 47.9003 125.066 48.1232 125.23 48.2875C125.394 48.4518 125.617 48.5441 125.85 48.5441C126.082 48.5441 126.305 48.4518 126.469 48.2875L131.719 43.0375C131.801 42.9562 131.865 42.8596 131.909 42.7533C131.953 42.647 131.976 42.5331 131.976 42.418C131.976 42.3029 131.953 42.1889 131.909 42.0826C131.865 41.9763 131.801 41.8797 131.719 41.7985L126.469 36.5485C126.305 36.3842 126.082 36.2919 125.85 36.2919C125.617 36.2919 125.394 36.3842 125.23 36.5485C125.066 36.7128 124.974 36.9356 124.974 37.168C124.974 37.4003 125.066 37.6232 125.23 37.7875L128.987 41.543H118.85C118.618 41.543 118.395 41.6352 118.231 41.7993C118.067 41.9633 117.975 42.1859 117.975 42.418ZM113.6 54.668C113.368 54.668 113.145 54.5758 112.981 54.4117C112.817 54.2476 112.725 54.025 112.725 53.793V31.043C112.725 30.8109 112.817 30.5883 112.981 30.4243C113.145 30.2602 113.368 30.168 113.6 30.168C113.832 30.168 114.054 30.2602 114.218 30.4243C114.382 30.5883 114.475 30.8109 114.475 31.043V53.793C114.475 54.025 114.382 54.2476 114.218 54.4117C114.054 54.5758 113.832 54.668 113.6 54.668Z" fill="#0E1F3C"/>
<g filter="url(#filter0_d_378_771)">
<path fill-rule="evenodd" clip-rule="evenodd" d="M152.911 41.918C152.911 58.4505 139.509 71.8528 122.977 71.8528C112.118 71.8528 102.609 66.071 97.362 57.418H94.4038C99.9087 67.5443 110.64 74.418 122.977 74.418C140.926 74.418 155.477 59.8672 155.477 41.918C155.477 23.9687 140.926 9.41797 122.977 9.41797C111.05 9.41797 100.625 15.8417 94.9706 25.418H97.9957C103.354 17.3224 112.542 11.9831 122.977 11.9831C139.509 11.9831 152.911 25.3854 152.911 41.918Z" fill="#E8B870"/>
</g>
<defs>
<filter id="filter0_d_378_771" x="85.8533" y="0.867454" width="78.1738" height="82.101" filterUnits="userSpaceOnUse" color-interpolation-filters="sRGB">
<feFlood flood-opacity="0" result="BackgroundImageFix"/>
<feColorMatrix in="SourceAlpha" type="matrix" values="0 0 0 0 0 0 0 0 0 0 0 0 0 0 0 0 0 0 127 0" result="hardAlpha"/>
<feOffset/>
<feGaussianBlur stdDeviation="4.27526"/>
<feColorMatrix type="matrix" values="0 0 0 0 0.909804 0 0 0 0 0.721569 0 0 0 0 0.439216 0 0 0 0.3 0"/>
<feBlend mode="normal" in2="BackgroundImageFix" result="effect1_dropShadow_378_771"/>
<feBlend mode="normal" in="SourceGraphic" in2="effect1_dropShadow_378_771" result="shape"/>
</filter>
</defs>
</svg>
