<svg width="529" height="456" viewBox="0 0 529 456" fill="none" xmlns="http://www.w3.org/2000/svg">
<path d="M283.789 94.3174V149.125L283.717 149.162L273.101 155.331L195.694 200.145L0.0360107 313.477V258.669L5.00213 255.783L195.694 145.301L273.101 100.523L278.895 97.1678L283.717 94.3174H283.789Z" fill="#B89560"/>
<path d="M529 291.612L283.789 149.089L0 313.513L245.211 456L529 291.612Z" fill="#665335"/>
<path d="M529 236.732L524.07 239.546L362.455 145.517L294.477 106.188L283.789 99.9822L283.717 99.9461L278.895 97.1678L283.717 94.3174H283.789L294.477 100.451L362.455 139.78L529 236.732Z" fill="#A38456"/>
<path d="M524.07 239.546V288.653L362.455 194.624L294.477 155.259L288.719 151.976V102.905L294.477 106.188L362.455 145.553V145.517L524.07 239.546Z" fill="#D4B078"/>
<path d="M4.96613 255.819L195.694 145.301V151.002L9.89626 258.669L4.96613 255.819Z" fill="#A38456"/>
<path d="M283.789 99.9823L283.717 100.054L273.101 106.188L195.694 151.002V145.301L273.101 100.524L278.895 97.168L283.717 99.9463L283.789 99.9823Z" fill="#A38456"/>
<path d="M283.789 9.99463V64.7666L283.717 64.8027L273.101 70.684L195.694 113.477L0.0360107 223.49V174.383L5.00213 171.496L195.694 61.0141L273.101 16.2007L281.702 11.1853L283.789 9.99463Z" fill="#B89560"/>
<path d="M519.104 152.409V201.48L362.455 110.302L294.477 70.9366L283.789 64.7667V15.7317L294.477 21.9017L362.455 61.1946V61.2667L519.104 152.409Z" fill="#D4B078"/>
<path d="M529 152.409L524.07 155.259L519.104 152.409L362.455 61.1945L294.477 21.9016L283.789 15.7316L283.717 15.6594L278.895 12.8451L281.701 11.1853L283.789 9.99463L285.876 11.1853L294.477 16.1285L362.455 55.4936L529 152.409Z" fill="#FFD491"/>
<path d="M4.03046 172.037L195.694 61.0142V66.7511L8.96059 174.888L4.03046 172.037Z" fill="#FFD491"/>
<path d="M283.789 15.7315L283.717 15.7676L273.101 21.9375L195.694 66.751V61.014L273.101 16.2366L278.895 12.845L283.717 15.6593L283.789 15.7315Z" fill="#FFD491"/>
<path d="M283.717 161.501V12.412L294.477 6.16992V155.259L283.717 161.501Z" fill="#B89560"/>
<path d="M283.717 161.501V12.4121L273.065 6.20605V155.332L283.717 161.501Z" fill="#D4B078"/>
<path d="M273.065 6.20605L283.717 12.4121L294.477 6.16996L283.789 0L273.065 6.20605Z" fill="#FFD491"/>
<path d="M31.3081 271.19L20.5482 264.984L9.89624 258.778L20.5482 264.911L31.3081 271.19Z" fill="#A38456"/>
</svg>
