<svg width="529" height="456" viewBox="0 0 529 456" fill="none" xmlns="http://www.w3.org/2000/svg">
<path d="M508.092 243.118V143.136L518.852 136.894V236.912L508.092 243.118Z" fill="#D4B078"/>
<path d="M508.092 243.118V143.136L497.368 136.894V249.36L508.092 243.118Z" fill="#A38456"/>
<path d="M497.44 136.93L508.092 143.136L518.852 136.894L508.164 130.724L497.44 136.93Z" fill="#FFD491"/>
<path d="M31.3082 158.723V271.19L20.5482 264.984V164.965L31.3082 158.723Z" fill="#A38456"/>
<path d="M20.5482 164.965V264.984L9.89624 258.778V158.795L20.5482 164.965Z" fill="#B89560"/>
<path d="M9.89624 158.759L20.5482 164.929L31.3081 158.723L20.6202 152.553L9.89624 158.759Z" fill="#FFD491"/>
<path d="M528.748 236.948V291.756L426.727 350.786L245.211 456V401.192L426.727 295.978L523.746 239.763L528.748 236.948Z" fill="#D4B078"/>
<path d="M525.149 238.933L426.727 295.942L250.105 398.305L245.211 395.419L255.899 389.249L426.727 290.241L497.368 249.36L508.092 243.154L520.219 236.046L525.149 238.933Z" fill="#A38456"/>
<path d="M528.748 152.625V201.733L518.852 207.434L508.092 213.676L497.404 219.81L497.368 219.882L426.727 260.762L255.899 359.734L245.211 365.94V316.833L250.105 314.019L255.899 310.627L426.727 211.655L497.368 170.811L497.404 170.775L508.092 164.605V164.532L518.852 158.399V158.326L523.746 155.476L528.748 152.625Z" fill="#D4B078"/>
<path d="M245.211 401.192V456L84.4961 362.512L0.0360107 313.586V258.778L84.4961 307.704L245.211 401.192Z" fill="#B89560"/>
<path d="M250.105 398.305L245.211 401.192L84.4961 307.704L0.0360107 258.778L4.96615 255.891L9.89628 258.778L20.5483 264.984L31.3082 271.19L84.4961 301.967L234.523 389.249V389.285L245.211 395.419L250.105 398.305Z" fill="#A38456"/>
<path d="M245.211 316.833V395.419L234.523 389.285V359.734L84.496 272.525V272.489L31.3081 241.639V192.604L84.496 223.382L234.523 310.699L245.211 316.833Z" fill="#B89560"/>
<path d="M255.899 289.23V304.962L245.211 311.132V295.473L255.899 289.23Z" fill="#D4B078"/>
<path d="M255.899 310.627V389.249L245.211 395.419V316.833L250.105 314.019L255.899 310.627Z" fill="#D4B078"/>
<path d="M245.211 295.473V311.132L234.523 304.962V289.267L245.211 295.473Z" fill="#B89560"/>
<path d="M234.523 289.267L245.175 295.437L255.899 289.231L245.247 283.061L234.523 289.267Z" fill="#FFD491"/>
<path d="M255.899 304.962V310.627L250.105 314.019L245.211 316.833L234.523 310.699L84.4961 223.382L31.3082 192.604L20.5483 186.398L9.89628 180.228L0.0360107 174.455L4.96615 171.604L9.89628 174.527L20.5483 180.697L31.3082 186.903L84.4961 217.681V217.717L234.523 304.962L245.211 311.132L255.899 304.962Z" fill="#FFD491"/>
<path d="M523.746 155.476L518.852 158.326L508.092 164.532L497.368 170.811L426.727 211.655L255.899 310.627V304.962L426.727 205.954L497.368 165.11L508.092 158.832L518.852 152.625L523.746 155.476Z" fill="#FFD491"/>
<path d="M31.3081 271.19L20.5482 264.984L9.89624 258.778L20.5482 264.911L31.3081 271.19Z" fill="#A38456"/>
<path d="M31.3082 192.604V241.639L20.5483 235.433L9.89628 229.299L0.0360107 223.526V174.455L9.89628 180.228L20.5483 186.398L31.3082 192.604Z" fill="#B89560"/>
</svg>
