<svg width="311" height="83" viewBox="0 0 311 83" fill="none" xmlns="http://www.w3.org/2000/svg">
<path d="M2.22586 42.5222C2.22586 41.8289 2.34853 41.1516 2.59386 40.4902C2.8392 39.8182 3.19653 39.2102 3.66586 38.6662C4.14586 38.1116 4.7272 37.6742 5.40986 37.3542C6.09253 37.0236 6.86586 36.8582 7.72986 36.8582C8.75386 36.8582 9.6392 37.0929 10.3859 37.5622C11.1325 38.0209 11.6872 38.6129 12.0499 39.3382L10.6419 40.2822C10.4285 39.8236 10.1565 39.4609 9.82586 39.1942C9.50586 38.9276 9.15386 38.7409 8.76986 38.6342C8.39653 38.5276 8.02853 38.4742 7.66586 38.4742C7.06853 38.4742 6.54586 38.5969 6.09786 38.8422C5.64986 39.0769 5.2712 39.3916 4.96186 39.7862C4.6632 40.1809 4.43386 40.6236 4.27386 41.1142C4.12453 41.6049 4.04986 42.0956 4.04986 42.5862C4.04986 43.1302 4.14053 43.6582 4.32186 44.1702C4.5032 44.6716 4.75386 45.1196 5.07386 45.5142C5.40453 45.8982 5.79386 46.2022 6.24186 46.4262C6.68986 46.6502 7.18053 46.7622 7.71386 46.7622C8.07653 46.7622 8.4552 46.6982 8.84986 46.5702C9.24453 46.4422 9.6072 46.2449 9.93786 45.9782C10.2792 45.7009 10.5459 45.3382 10.7379 44.8902L12.2259 45.7382C11.9912 46.3036 11.6232 46.7836 11.1219 47.1782C10.6312 47.5729 10.0765 47.8716 9.45786 48.0742C8.84986 48.2769 8.2472 48.3782 7.64986 48.3782C6.84986 48.3782 6.1192 48.2129 5.45786 47.8822C4.79653 47.5409 4.22586 47.0929 3.74586 46.5382C3.26586 45.9729 2.89253 45.3436 2.62586 44.6502C2.3592 43.9462 2.22586 43.2369 2.22586 42.5222ZM26.1427 48.3622C25.3214 48.3622 24.5801 48.2022 23.9187 47.8822C23.2574 47.5622 22.6867 47.1302 22.2067 46.5862C21.7267 46.0316 21.3534 45.4129 21.0867 44.7302C20.8307 44.0369 20.7027 43.3276 20.7027 42.6022C20.7027 41.8449 20.8414 41.1249 21.1187 40.4422C21.3961 39.7489 21.7801 39.1356 22.2707 38.6022C22.7614 38.0582 23.3374 37.6316 23.9987 37.3222C24.6707 37.0022 25.3961 36.8422 26.1747 36.8422C26.9854 36.8422 27.7214 37.0076 28.3827 37.3382C29.0547 37.6689 29.6254 38.1116 30.0947 38.6662C30.5747 39.2209 30.9427 39.8396 31.1987 40.5222C31.4654 41.2049 31.5987 41.9036 31.5987 42.6182C31.5987 43.3756 31.4601 44.1009 31.1827 44.7942C30.9161 45.4769 30.5374 46.0902 30.0467 46.6342C29.5561 47.1676 28.9747 47.5889 28.3027 47.8982C27.6414 48.2076 26.9214 48.3622 26.1427 48.3622ZM22.5267 42.6022C22.5267 43.1356 22.6121 43.6529 22.7827 44.1542C22.9534 44.6556 23.1934 45.1036 23.5027 45.4982C23.8227 45.8822 24.2067 46.1862 24.6547 46.4102C25.1027 46.6342 25.6041 46.7462 26.1587 46.7462C26.7347 46.7462 27.2467 46.6289 27.6947 46.3942C28.1427 46.1596 28.5161 45.8449 28.8147 45.4502C29.1241 45.0449 29.3587 44.5969 29.5187 44.1062C29.6787 43.6049 29.7587 43.1036 29.7587 42.6022C29.7587 42.0689 29.6734 41.5569 29.5027 41.0662C29.3427 40.5649 29.1027 40.1222 28.7827 39.7382C28.4627 39.3436 28.0787 39.0342 27.6307 38.8102C27.1934 38.5862 26.7027 38.4742 26.1587 38.4742C25.5827 38.4742 25.0707 38.5916 24.6227 38.8262C24.1747 39.0609 23.7961 39.3756 23.4867 39.7702C23.1774 40.1649 22.9374 40.6076 22.7667 41.0982C22.6067 41.5889 22.5267 42.0902 22.5267 42.6022ZM50.686 48.2822V40.1862L47.342 46.3302H46.286L42.926 40.1862V48.2822H41.134V36.9222H43.054L46.814 43.8662L50.574 36.9222H52.494V48.2822H50.686ZM62.7359 48.2822V36.9222H67.5039C68.0159 36.9222 68.4852 37.0289 68.9119 37.2422C69.3385 37.4556 69.7119 37.7382 70.0319 38.0902C70.3519 38.4422 70.5972 38.8369 70.7679 39.2742C70.9385 39.7116 71.0239 40.1596 71.0239 40.6182C71.0239 41.2476 70.8799 41.8502 70.5919 42.4262C70.3145 42.9916 69.9145 43.4502 69.3919 43.8022C68.8799 44.1542 68.2825 44.3302 67.5999 44.3302H64.5279V48.2822H62.7359ZM64.5279 42.7462H67.4879C67.8292 42.7462 68.1279 42.6556 68.3839 42.4742C68.6399 42.2822 68.8372 42.0262 68.9759 41.7062C69.1252 41.3862 69.1999 41.0236 69.1999 40.6182C69.1999 40.2022 69.1145 39.8342 68.9439 39.5142C68.7732 39.1942 68.5492 38.9489 68.2719 38.7782C68.0052 38.5969 67.7119 38.5062 67.3919 38.5062H64.5279V42.7462ZM80.3846 48.2822V36.9222H82.1766V46.6982H88.2726V48.2822H80.3846ZM105.2 46.6982V48.2822H97.4084V36.9222H105.056V38.5062H99.2004V41.7382H104.272V43.2262H99.2004V46.6982H105.2ZM123.065 38.5062H119.289V48.2822H117.481V38.5062H113.689V36.9222H123.065V38.5062ZM140.06 46.6982V48.2822H132.268V36.9222H139.916V38.5062H134.06V41.7382H139.132V43.2262H134.06V46.6982H140.06ZM165.942 48.3622C165.121 48.3622 164.379 48.2022 163.718 47.8822C163.057 47.5622 162.486 47.1302 162.006 46.5862C161.526 46.0316 161.153 45.4129 160.886 44.7302C160.63 44.0369 160.502 43.3276 160.502 42.6022C160.502 41.8449 160.641 41.1249 160.918 40.4422C161.195 39.7489 161.579 39.1356 162.07 38.6022C162.561 38.0582 163.137 37.6316 163.798 37.3222C164.47 37.0022 165.195 36.8422 165.974 36.8422C166.785 36.8422 167.521 37.0076 168.182 37.3382C168.854 37.6689 169.425 38.1116 169.894 38.6662C170.374 39.2209 170.742 39.8396 170.998 40.5222C171.265 41.2049 171.398 41.9036 171.398 42.6182C171.398 43.3756 171.259 44.1009 170.982 44.7942C170.715 45.4769 170.337 46.0902 169.846 46.6342C169.355 47.1676 168.774 47.5889 168.102 47.8982C167.441 48.2076 166.721 48.3622 165.942 48.3622ZM162.326 42.6022C162.326 43.1356 162.411 43.6529 162.582 44.1542C162.753 44.6556 162.993 45.1036 163.302 45.4982C163.622 45.8822 164.006 46.1862 164.454 46.4102C164.902 46.6342 165.403 46.7462 165.958 46.7462C166.534 46.7462 167.046 46.6289 167.494 46.3942C167.942 46.1596 168.315 45.8449 168.614 45.4502C168.923 45.0449 169.158 44.5969 169.318 44.1062C169.478 43.6049 169.558 43.1036 169.558 42.6022C169.558 42.0689 169.473 41.5569 169.302 41.0662C169.142 40.5649 168.902 40.1222 168.582 39.7382C168.262 39.3436 167.878 39.0342 167.43 38.8102C166.993 38.5862 166.502 38.4742 165.958 38.4742C165.382 38.4742 164.87 38.5916 164.422 38.8262C163.974 39.0609 163.595 39.3756 163.286 39.7702C162.977 40.1649 162.737 40.6076 162.566 41.0982C162.406 41.5889 162.326 42.0902 162.326 42.6022ZM180.933 48.2822V36.9222H185.877C186.389 36.9222 186.859 37.0289 187.285 37.2422C187.712 37.4556 188.08 37.7382 188.389 38.0902C188.709 38.4422 188.955 38.8369 189.125 39.2742C189.307 39.7116 189.397 40.1596 189.397 40.6182C189.397 41.1196 189.307 41.5996 189.125 42.0582C188.944 42.5169 188.683 42.9116 188.341 43.2422C188.011 43.5729 187.621 43.8129 187.173 43.9622L189.845 48.2822H187.829L185.365 44.3302H182.725V48.2822H180.933ZM182.725 42.7462H185.861C186.192 42.7462 186.485 42.6502 186.741 42.4582C186.997 42.2662 187.2 42.0102 187.349 41.6902C187.499 41.3596 187.573 41.0022 187.573 40.6182C187.573 40.2236 187.488 39.8716 187.317 39.5622C187.147 39.2422 186.923 38.9862 186.645 38.7942C186.379 38.6022 186.085 38.5062 185.765 38.5062H182.725V42.7462ZM199.191 48.2822V36.9222H203.223C204.45 36.9222 205.474 37.1782 206.295 37.6902C207.117 38.1916 207.73 38.8742 208.135 39.7382C208.551 40.5916 208.759 41.5409 208.759 42.5862C208.759 43.7382 208.53 44.7409 208.071 45.5942C207.623 46.4476 206.983 47.1089 206.151 47.5782C205.319 48.0476 204.343 48.2822 203.223 48.2822H199.191ZM206.935 42.5862C206.935 41.7862 206.786 41.0822 206.487 40.4742C206.199 39.8556 205.778 39.3756 205.223 39.0342C204.679 38.6822 204.013 38.5062 203.223 38.5062H200.983V46.6982H203.223C204.023 46.6982 204.695 46.5169 205.239 46.1542C205.794 45.7916 206.215 45.3009 206.503 44.6822C206.791 44.0636 206.935 43.3649 206.935 42.5862ZM226.117 46.6982V48.2822H218.325V36.9222H225.973V38.5062H220.117V41.7382H225.189V43.2262H220.117V46.6982H226.117ZM235.645 48.2822V36.9222H240.589C241.101 36.9222 241.571 37.0289 241.997 37.2422C242.424 37.4556 242.792 37.7382 243.101 38.0902C243.421 38.4422 243.667 38.8369 243.837 39.2742C244.019 39.7116 244.109 40.1596 244.109 40.6182C244.109 41.1196 244.019 41.5996 243.837 42.0582C243.656 42.5169 243.395 42.9116 243.053 43.2422C242.723 43.5729 242.333 43.8129 241.885 43.9622L244.557 48.2822H242.541L240.077 44.3302H237.437V48.2822H235.645ZM237.437 42.7462H240.573C240.904 42.7462 241.197 42.6502 241.453 42.4582C241.709 42.2662 241.912 42.0102 242.061 41.6902C242.211 41.3596 242.285 41.0022 242.285 40.6182C242.285 40.2236 242.2 39.8716 242.029 39.5622C241.859 39.2422 241.635 38.9862 241.357 38.7942C241.091 38.6022 240.797 38.5062 240.477 38.5062H237.437V42.7462Z" fill="#0E1F3C"/>
<path fill-rule="evenodd" clip-rule="evenodd" d="M264.441 42.2822C264.441 42.5143 264.534 42.7369 264.698 42.9009C264.862 43.065 265.084 43.1572 265.316 43.1572H275.454L271.697 46.9127C271.533 47.077 271.44 47.2999 271.44 47.5322C271.44 47.7646 271.533 47.9874 271.697 48.1517C271.861 48.316 272.084 48.4083 272.316 48.4083C272.549 48.4083 272.772 48.316 272.936 48.1517L278.186 42.9017C278.267 42.8204 278.332 42.7239 278.376 42.6176C278.42 42.5113 278.443 42.3973 278.443 42.2822C278.443 42.1671 278.42 42.0532 278.376 41.9469C278.332 41.8406 278.267 41.744 278.186 41.6627L272.936 36.4127C272.772 36.2484 272.549 36.1561 272.316 36.1561C272.084 36.1561 271.861 36.2484 271.697 36.4127C271.533 36.577 271.44 36.7999 271.44 37.0322C271.44 37.2646 271.533 37.4874 271.697 37.6517L275.454 41.4072H265.316C265.084 41.4072 264.862 41.4994 264.698 41.6635C264.534 41.8276 264.441 42.0502 264.441 42.2822ZM260.066 54.5322C259.834 54.5322 259.612 54.44 259.448 54.2759C259.284 54.1119 259.191 53.8893 259.191 53.6572V30.9072C259.191 30.6752 259.284 30.4526 259.448 30.2885C259.612 30.1244 259.834 30.0322 260.066 30.0322C260.298 30.0322 260.521 30.1244 260.685 30.2885C260.849 30.4526 260.941 30.6752 260.941 30.9072V53.6572C260.941 53.8893 260.849 54.1119 260.685 54.2759C260.521 54.44 260.298 54.5322 260.066 54.5322Z" fill="#0E1F3C"/>
<g filter="url(#filter0_d_2_8341)">
<path fill-rule="evenodd" clip-rule="evenodd" d="M299.378 41.7822C299.378 58.3148 285.976 71.7171 269.443 71.7171C258.585 71.7171 249.076 65.9353 243.829 57.2822H240.871C246.376 67.4086 257.107 74.2822 269.443 74.2822C287.393 74.2822 301.943 59.7315 301.943 41.7822C301.943 23.833 287.393 9.28223 269.443 9.28223C257.517 9.28223 247.092 15.706 241.437 25.2822H244.463C249.821 17.1866 259.008 11.8474 269.443 11.8474C285.976 11.8474 299.378 25.2497 299.378 41.7822Z" fill="#E8B870"/>
</g>
<defs>
<filter id="filter0_d_2_8341" x="232.32" y="0.731711" width="78.1738" height="82.101" filterUnits="userSpaceOnUse" color-interpolation-filters="sRGB">
<feFlood flood-opacity="0" result="BackgroundImageFix"/>
<feColorMatrix in="SourceAlpha" type="matrix" values="0 0 0 0 0 0 0 0 0 0 0 0 0 0 0 0 0 0 127 0" result="hardAlpha"/>
<feOffset/>
<feGaussianBlur stdDeviation="4.27526"/>
<feColorMatrix type="matrix" values="0 0 0 0 0.909804 0 0 0 0 0.721569 0 0 0 0 0.439216 0 0 0 0.3 0"/>
<feBlend mode="normal" in2="BackgroundImageFix" result="effect1_dropShadow_2_8341"/>
<feBlend mode="normal" in="SourceGraphic" in2="effect1_dropShadow_2_8341" result="shape"/>
</filter>
</defs>
</svg>
