<svg width="157" height="83" viewBox="0 0 157 83" fill="none" xmlns="http://www.w3.org/2000/svg">
<path d="M1.95812 47.8271V36.4671H9.52612V38.0511H3.75012V41.4431H8.58212V42.9311H3.75012V47.8271H1.95812ZM18.9037 47.8271V36.4671H20.6957V47.8271H18.9037ZM32.7351 39.7951V47.8271H30.9431V36.4671H32.4151L38.8471 44.6751V36.4831H40.6551V47.8271H39.0871L32.7351 39.7951ZM50.8887 47.8271V36.4671H52.6807V47.8271H50.8887ZM69.6481 39.1391C69.5415 39.0218 69.3868 38.8991 69.1841 38.7711C68.9815 38.6325 68.7415 38.5045 68.4641 38.3871C68.1868 38.2698 67.8881 38.1738 67.5681 38.0991C67.2481 38.0245 66.9175 37.9871 66.5761 37.9871C65.8295 37.9871 65.2748 38.1258 64.9121 38.4031C64.5495 38.6805 64.3681 39.0645 64.3681 39.5551C64.3681 39.9178 64.4695 40.2058 64.6721 40.4191C64.8748 40.6218 65.1841 40.7925 65.6001 40.9311C66.0161 41.0698 66.5388 41.2191 67.1681 41.3791C67.9361 41.5605 68.6028 41.7791 69.1681 42.0351C69.7335 42.2805 70.1655 42.6111 70.4641 43.0271C70.7628 43.4431 70.9121 43.9925 70.9121 44.6751C70.9121 45.2511 70.8055 45.7471 70.5921 46.1631C70.3788 46.5791 70.0801 46.9205 69.6961 47.1871C69.3121 47.4431 68.8695 47.6351 68.3681 47.7631C67.8668 47.8805 67.3281 47.9391 66.7521 47.9391C66.1868 47.9391 65.6215 47.8805 65.0561 47.7631C64.5015 47.6458 63.9681 47.4751 63.4561 47.2511C62.9548 47.0165 62.4908 46.7338 62.0641 46.4031L62.8801 44.8671C63.0188 45.0058 63.2161 45.1605 63.4721 45.3311C63.7388 45.4911 64.0428 45.6458 64.3841 45.7951C64.7361 45.9445 65.1148 46.0725 65.5201 46.1791C65.9361 46.2751 66.3575 46.3231 66.7841 46.3231C67.4988 46.3231 68.0428 46.2005 68.4161 45.9551C68.8001 45.6991 68.9921 45.3365 68.9921 44.8671C68.9921 44.4831 68.8695 44.1791 68.6241 43.9551C68.3788 43.7205 68.0215 43.5231 67.5521 43.3631C67.0828 43.2031 66.5228 43.0431 65.8721 42.8831C65.1255 42.6805 64.5015 42.4618 64.0001 42.2271C63.4988 41.9818 63.1201 41.6725 62.8641 41.2991C62.6188 40.9151 62.4961 40.4298 62.4961 39.8431C62.4961 39.0965 62.6775 38.4671 63.0401 37.9551C63.4028 37.4325 63.8935 37.0431 64.5121 36.7871C65.1415 36.5205 65.8455 36.3871 66.6241 36.3871C67.1361 36.3871 67.6215 36.4458 68.0801 36.5631C68.5388 36.6698 68.9655 36.8191 69.3601 37.0111C69.7655 37.2031 70.1335 37.4218 70.4641 37.6671L69.6481 39.1391ZM89.7174 36.4671V47.8271H87.9094V42.8191H82.1814V47.8271H80.3894V36.4671H82.1814V41.2191H87.9094V36.4671H89.7174Z" fill="#0E1F3C"/>
<path fill-rule="evenodd" clip-rule="evenodd" d="M110.498 41.8273C110.498 42.0593 110.59 42.2819 110.754 42.446C110.918 42.6101 111.141 42.7023 111.373 42.7023H121.511L117.754 46.4578C117.589 46.6221 117.497 46.8449 117.497 47.0773C117.497 47.3096 117.589 47.5325 117.754 47.6968C117.918 47.8611 118.141 47.9534 118.373 47.9534C118.605 47.9534 118.828 47.8611 118.993 47.6968L124.243 42.4468C124.324 42.3655 124.389 42.2689 124.433 42.1626C124.477 42.0563 124.5 41.9424 124.5 41.8273C124.5 41.7122 124.477 41.5982 124.433 41.4919C124.389 41.3856 124.324 41.2891 124.243 41.2078L118.993 35.9578C118.828 35.7935 118.605 35.7012 118.373 35.7012C118.141 35.7012 117.918 35.7935 117.754 35.9578C117.589 36.1221 117.497 36.3449 117.497 36.5773C117.497 36.8096 117.589 37.0325 117.754 37.1968L121.511 40.9523H111.373C111.141 40.9523 110.918 41.0445 110.754 41.2086C110.59 41.3726 110.498 41.5952 110.498 41.8273ZM106.123 54.0773C105.891 54.0773 105.668 53.9851 105.504 53.821C105.34 53.6569 105.248 53.4343 105.248 53.2023V30.4523C105.248 30.2202 105.34 29.9976 105.504 29.8336C105.668 29.6695 105.891 29.5773 106.123 29.5773C106.355 29.5773 106.578 29.6695 106.742 29.8336C106.906 29.9976 106.998 30.2202 106.998 30.4523V53.2023C106.998 53.4343 106.906 53.6569 106.742 53.821C106.578 53.9851 106.355 54.0773 106.123 54.0773Z" fill="#0E1F3C"/>
<g filter="url(#filter0_d_2_8651)">
<path fill-rule="evenodd" clip-rule="evenodd" d="M145.435 41.3271C145.435 57.8597 132.033 71.262 115.5 71.262C104.641 71.262 95.1328 65.4802 89.8854 56.8271H86.9272C92.4322 66.9535 103.163 73.8271 115.5 73.8271C133.449 73.8271 148 59.2764 148 41.3271C148 23.3779 133.449 8.82715 115.5 8.82715C103.574 8.82715 93.1482 15.2509 87.494 24.8271H90.5192C95.8771 16.7316 105.065 11.3923 115.5 11.3923C132.033 11.3923 145.435 24.7946 145.435 41.3271Z" fill="#E8B870"/>
</g>
<defs>
<filter id="filter0_d_2_8651" x="78.3767" y="0.276633" width="78.1738" height="82.101" filterUnits="userSpaceOnUse" color-interpolation-filters="sRGB">
<feFlood flood-opacity="0" result="BackgroundImageFix"/>
<feColorMatrix in="SourceAlpha" type="matrix" values="0 0 0 0 0 0 0 0 0 0 0 0 0 0 0 0 0 0 127 0" result="hardAlpha"/>
<feOffset/>
<feGaussianBlur stdDeviation="4.27526"/>
<feColorMatrix type="matrix" values="0 0 0 0 0.909804 0 0 0 0 0.721569 0 0 0 0 0.439216 0 0 0 0.3 0"/>
<feBlend mode="normal" in2="BackgroundImageFix" result="effect1_dropShadow_2_8651"/>
<feBlend mode="normal" in="SourceGraphic" in2="effect1_dropShadow_2_8651" result="shape"/>
</filter>
</defs>
</svg>
