<svg width="75" height="247" viewBox="0 0 75 247" fill="none" xmlns="http://www.w3.org/2000/svg">
<g clip-path="url(#clip0_2_11695)">
<path d="M27.0427 56.6492C21.4863 59.9083 21.679 65.4488 27.4602 68.7405C30.6576 70.3637 34.1904 71.1898 37.7653 71.1501C41.3402 71.1104 44.8543 70.2061 48.0159 68.5124C53.5723 65.2532 52.9942 59.8105 47.2129 56.5188C44.0882 54.8936 40.6233 54.057 37.1121 54.0797C33.6009 54.1024 30.1468 54.9837 27.0427 56.6492Z" fill="#EAB49D"/>
<path d="M73.5817 221.92C72.7145 216.999 68.9889 212.143 62.469 208.558C47.791 200.247 24.4411 200.475 10.3734 209.079C10.3734 209.242 9.89171 212.338 18.4993 217.129L36.9029 227.559L18.4993 217.129C9.89171 212.273 10.3413 209.242 10.3734 209.079C7.91204 210.338 5.74281 212.113 4.00956 214.288C2.27632 216.463 1.0187 218.986 0.320418 221.692C0.203033 222.349 0.128105 223.013 0.0957642 223.68C0.0957642 224.299 0.0957642 225.114 0.0957642 225.733C0.136625 226.163 0.211642 226.588 0.320418 227.004C0.320418 227.624 0.673858 228.438 0.866566 229.058C1.05927 229.677 1.25196 230.035 1.44467 230.459C1.75575 231.096 2.09882 231.716 2.47247 232.317C3.15191 233.492 3.95999 234.585 4.88132 235.576C5.86886 236.643 6.94326 237.625 8.09313 238.509C9.35931 239.471 10.6901 240.342 12.0757 241.117C13.3605 241.834 15.2874 242.681 16.5721 243.268C18.2051 243.94 19.8788 244.506 21.5828 244.962C23.1244 245.386 25.2121 245.875 26.7859 246.136C27.5888 246.136 28.6486 246.429 29.4515 246.559C30.2545 246.69 31.3466 246.787 32.1817 246.82C33.0167 246.853 34.0765 246.983 34.8795 246.983H37.6096H40.3396L43.0695 246.787L45.7675 246.429C46.5705 246.429 47.6626 246.136 48.4656 245.973L51.035 245.386L53.6687 244.669C54.4074 244.441 55.3709 244.115 56.1097 243.822C56.8484 243.528 57.8761 243.137 58.6469 242.779L60.8631 241.736C61.5054 241.377 62.3404 240.921 62.9506 240.53C63.5609 240.139 64.5245 239.52 65.1989 239.031C65.8918 238.537 66.5566 238.004 67.1902 237.434C67.8501 236.868 68.4725 236.258 69.0531 235.609C69.8338 234.706 70.563 233.76 71.2371 232.773C71.6226 232.187 72.0402 231.339 72.3614 230.72C72.9125 229.538 73.3118 228.289 73.5498 227.004C73.5498 226.613 73.5498 226.092 73.5498 225.668C73.5498 225.244 73.5498 224.593 73.5498 224.136C73.6195 223.4 73.6301 222.659 73.5817 221.92Z" fill="#D69A81"/>
<path d="M74.0636 105.895C74.0636 137.997 73.8708 192.132 73.8387 224.234C73.8387 218.531 69.9846 212.827 62.4368 208.525C47.791 200.247 24.4732 200.442 10.3734 209.047C3.53227 213.251 0.127747 218.628 0.127747 224.006C0.127747 191.903 0.32051 137.802 0.384746 105.699C0.384746 100.289 3.78927 94.9115 10.6304 90.7723C24.7302 82.1682 48.1121 81.9075 62.7579 90.1857C70.3057 94.4878 74.1278 100.191 74.0636 105.895Z" fill="#EAA98D"/>
<path d="M57.4908 65.7095L56.7198 64.9599L56.3344 64.6015L55.5315 63.8518L54.7285 63.1023C54.6082 62.9639 54.4795 62.8332 54.3431 62.7111L53.5402 61.9616L52.7694 61.2119L52.3518 60.8535L51.581 60.1038L50.7781 59.3542L50.3927 58.9631L49.5897 58.2136C52.9942 61.4727 52.3839 65.6769 47.7589 68.5124C44.622 70.1738 41.1428 71.0604 37.6044 71.1C34.0661 71.1397 30.5686 70.3313 27.3962 68.7405C22.4179 65.9051 21.615 61.4726 25.1801 58.1483L17.2146 65.6118C11.3692 71.0545 12.6861 78.3876 20.9083 83.0482C26.132 85.6824 31.8956 87.026 37.7285 86.9694C43.5615 86.9127 49.2986 85.4575 54.4717 82.7223C62.1158 78.0291 63.0794 71.0219 57.4908 65.7095Z" fill="#EABCA8"/>
<path d="M74.0957 105.895C74.0957 105.243 74.0957 104.396 74.0957 103.744C74.0957 103.092 74.0957 102.082 74.0957 101.397C74.0957 100.094 73.7745 98.3662 73.6139 97.0951C73.6139 96.4107 73.3569 95.4655 73.2285 94.7811C73.1 94.0967 72.9074 93.1841 72.7147 92.4997C72.4256 91.2612 71.9758 89.5991 71.5904 88.3606C71.3977 87.7088 71.0766 86.8287 70.8518 86.1443C70.6269 85.4599 70.2736 84.6125 70.0167 83.9933C69.5349 82.82 68.8284 81.2882 68.2824 80.1475C67.9612 79.4957 67.5114 78.681 67.1903 78.0617C66.8691 77.4425 65.8414 75.7477 64.8778 74.2811C64.4603 73.6945 63.9464 72.9123 63.4968 72.3582C63.0471 71.8042 61.7623 70.1094 60.9593 69.0991L59.3856 67.3391L57.6513 65.6444C63.2398 70.9568 62.2763 77.964 54.6322 82.6571C49.4591 85.3923 43.722 86.8476 37.889 86.9042C32.056 86.9608 26.2925 85.6172 21.0688 82.983C12.8466 78.3224 11.4333 70.9894 17.3751 65.5466C16.8768 65.973 16.405 66.4301 15.9621 66.9154C15.4482 67.4369 14.7737 68.1539 14.2919 68.708C13.8101 69.2621 12.4612 70.8916 11.7225 71.9671C10.9838 73.0427 10.7268 73.3359 10.3093 73.9552C9.89177 74.5744 9.37777 75.324 8.99236 75.9432C8.60694 76.5624 7.51488 78.4854 6.93675 79.5609C6.35863 80.6364 6.19818 81.0601 5.877 81.7119C5.55582 82.3638 5.20239 83.2112 4.94545 83.863C4.46368 85.0363 3.88568 86.6333 3.46814 87.8391C3.2112 88.491 2.98627 89.4035 2.76145 90.088C2.76145 90.088 2.18346 92.1086 1.70169 94.4552C1.70169 95.1396 1.38049 96.0521 1.28414 96.7692C1.09143 98.0402 0.898614 99.7676 0.770142 101.039C0.770142 101.756 0.770142 102.701 0.770142 103.385C0.770142 104.07 0.770142 105.047 0.770142 105.764C0.770142 111.468 4.52805 117.171 12.1079 121.441C26.7859 129.752 50.1035 129.524 64.2033 120.919C70.6911 116.683 74.0957 111.305 74.0957 105.895Z" fill="#EAB49D"/>
<path d="M51.7736 62.7111C50.226 61.0552 49.3538 58.8661 49.3326 56.584C49.2595 57.6069 48.9249 58.5927 48.3617 59.4443C47.7985 60.2959 47.026 60.9838 46.1208 61.4401C43.5097 62.7907 40.6206 63.4949 37.6898 63.4949C34.7591 63.4949 31.8699 62.7907 29.2589 61.4401C28.2442 61.0159 27.3635 60.3178 26.7124 59.4214C26.0612 58.5251 25.6646 57.4648 25.5654 56.3558C25.5299 58.6253 24.6591 60.7992 23.1244 62.4504C23.2416 63.7805 23.7129 65.0533 24.488 66.1326C25.2631 67.2118 26.3126 68.057 27.5245 68.5776C30.6969 70.1683 34.1944 70.9768 37.7328 70.9371C41.2711 70.8975 44.7503 70.0109 47.8873 68.3494C48.9472 67.8132 49.8581 67.0164 50.5369 66.0316C51.2157 65.0468 51.6408 63.9053 51.7736 62.7111Z" fill="#EAB49D"/>
<path d="M49.3326 56.584V32.3685C49.2572 33.3866 48.9212 34.3671 48.3579 35.2131C47.7946 36.059 47.0235 36.7412 46.1208 37.1921C43.5193 38.5734 40.6328 39.3111 37.6969 39.345C34.7609 39.379 31.8586 38.7083 29.2267 37.3876C28.218 36.9545 27.343 36.2539 26.6931 35.3593C26.0433 34.4647 25.6426 33.4092 25.5332 32.3033V56.5187C25.6324 57.6277 26.029 58.688 26.6802 59.5843C27.3314 60.4807 28.212 61.1788 29.2267 61.603C31.8378 62.9536 34.7269 63.6578 37.6577 63.6578C40.5884 63.6578 43.4775 62.9536 46.0886 61.603C47.0225 61.1375 47.8161 60.4263 48.3867 59.5435C48.9573 58.6606 49.284 57.6386 49.3326 56.584Z" fill="#EAA98D"/>
<path d="M45.8319 37.2899L47.1486 36.5403C44.1568 38.0577 40.858 38.8477 37.5132 38.8477C34.1685 38.8477 30.8696 38.0577 27.8778 36.5403L29.1626 37.2899C31.7517 38.5986 34.6046 39.2797 37.4971 39.2797C40.3897 39.2797 43.2428 38.5986 45.8319 37.2899Z" fill="#2E1B18"/>
<path d="M27.9099 9.75014C22.8352 12.8463 22.9958 17.8002 28.2953 20.766C31.2125 22.2431 34.433 22.9985 37.6931 22.9702C40.9532 22.9418 44.1604 22.1307 47.0523 20.6031C52.127 17.3439 51.9343 12.553 46.6669 9.5546C43.7472 8.08249 40.5253 7.33272 37.2652 7.36671C34.005 7.40069 30.7992 8.21747 27.9099 9.75014ZM31.1217 11.6405C33.0162 10.6591 35.1132 10.1474 37.2403 10.1474C39.3674 10.1474 41.4641 10.6591 43.3587 11.6405C46.8274 13.5959 46.9559 16.8225 43.6157 18.8431C41.7211 19.8245 39.6242 20.3361 37.4971 20.3361C35.37 20.3361 33.2732 19.8245 31.3787 18.8431C27.9099 16.8876 27.8135 13.6611 31.1217 11.6405Z" fill="#EABCA8"/>
<path d="M46.153 5.93694V15.1929C46.0896 15.942 45.8338 16.6613 45.4112 17.2788C44.9885 17.8964 44.4138 18.3908 43.7441 18.7128C41.8496 19.6941 39.7529 20.2058 37.6257 20.2058C35.4986 20.2058 33.4017 19.6941 31.5072 18.7128C30.7747 18.3939 30.1405 17.8805 29.6713 17.2267C29.2022 16.5728 28.9154 15.8027 28.8413 14.9974V5.83917C28.8597 5.12646 29.108 4.43952 29.548 3.88367C30.0889 4.57392 30.7675 5.14034 31.5393 5.54581C33.4315 6.5349 35.5292 7.05096 37.6577 7.05096C39.7862 7.05096 41.884 6.5349 43.7763 5.54581C44.4432 5.13551 45.0308 4.60542 45.5106 3.98144C45.9275 4.54558 46.153 5.23176 46.153 5.93694Z" fill="#D4B078"/>
<path opacity="0.4" d="M17.1505 100.224V159.312V198.422C17.1505 203.571 17.1505 208.721 17.1505 213.935C17.1505 219.15 17.1505 225.114 17.1505 230.72C17.1505 233.425 14.9985 234.501 12.4612 233.132C10.9617 232.424 9.68798 231.304 8.78515 229.898C7.88233 228.492 7.38655 226.857 7.35431 225.179C7.35431 223.615 7.35431 221.92 7.35431 220.388V201.714C7.35431 192.751 7.35431 135.357 7.35431 126.362C7.35431 117.367 7.35436 108.698 7.80401 99.735C8.05241 95.1178 9.14137 90.5873 11.0158 86.3725C12.7482 81.97 15.3998 78.0006 18.7883 74.7374C19.0176 74.4542 19.3074 74.2279 19.6358 74.0754C19.9641 73.923 20.3224 73.8484 20.6834 73.8574C21.2936 73.8574 21.7754 74.2485 22.1287 75.1937C22.2404 75.6027 22.252 76.0333 22.1624 76.4479C22.0729 76.8625 21.8848 77.2486 21.6147 77.5728C18.3895 84.661 16.86 92.4221 17.1505 100.224Z" fill="white"/>
<path opacity="0.4" d="M32.3101 47.0673C32.3101 49.9354 32.3101 52.8687 32.3101 55.7693C32.2203 57.2782 31.8611 58.7579 31.2502 60.1365C30.6654 61.5581 29.8022 62.8443 28.7129 63.9172C28.6419 64.0102 28.5483 64.083 28.4414 64.1287C28.3345 64.1744 28.2179 64.1913 28.1027 64.1778C27.9888 64.1781 27.8789 64.1345 27.7955 64.0559C27.712 63.9773 27.6611 63.8694 27.653 63.7541C27.653 63.3956 27.653 63.1676 27.653 63.0046C28.7344 60.6767 29.2204 58.1099 29.0662 55.5411V37.5507C30.0848 38.06 31.1645 38.4325 32.278 38.6588C32.3101 42.0809 32.3101 45.9592 32.3101 47.0673Z" fill="white"/>
<path d="M50.7137 15.2255V32.3359C50.6216 33.471 50.2382 34.5617 49.6014 35.4995C48.9646 36.4372 48.0967 37.1894 47.0843 37.6809C44.63 38.9773 41.9454 39.7633 39.1877 39.9928C36.4301 40.2223 33.655 39.8906 31.0253 39.0172C30.0986 38.7504 29.2045 38.3787 28.3597 37.9091L27.8135 37.5832C26.8312 37.0701 25.9958 36.3087 25.3882 35.3724C24.7806 34.4361 24.4213 33.3566 24.3449 32.2382V15.1277C24.432 16.2347 24.7962 17.3008 25.4033 18.2249C26.0104 19.1489 26.84 19.9002 27.8135 20.4075L28.4238 20.7986C29.2466 21.2672 30.1194 21.639 31.0253 21.9067C33.6768 22.8121 36.4823 23.1606 39.2707 22.9309C42.0591 22.7011 44.7723 21.898 47.2451 20.5704C48.2274 20.0574 49.0628 19.296 49.6704 18.3597C50.2781 17.4234 50.6373 16.3439 50.7137 15.2255Z" fill="#EAB49D"/>
<path opacity="0.4" d="M30.8648 21.9068V39.0173C29.938 38.7505 29.044 38.3788 28.1991 37.9092L27.653 37.5832V26.4695C27.653 24.4489 27.653 22.4283 27.653 20.4076L28.2632 20.7987C29.086 21.2673 29.9588 21.6391 30.8648 21.9068Z" fill="white"/>
<path d="M0.866558 196.531V190.013L1.05926 131.088C0.963633 130.224 1.08513 129.349 1.41251 128.546C2.08699 128.546 2.08704 128.546 2.66516 129.458C4.97558 132.883 8.08782 135.671 11.7225 137.574C24.73 144.145 39.6808 145.574 53.6686 141.582C58.4221 140.376 58.7433 143.668 58.8718 144.841L58.6791 210.024V211.067V212.436C58.5874 213.975 58.0423 215.45 57.1145 216.67C56.1868 217.89 54.9192 218.8 53.4759 219.28C39.9221 223.224 23.028 221.985 11.4976 215.435C7.85603 213.542 4.74149 210.752 2.44031 207.319C1.20831 204.713 0.665966 201.827 0.866558 198.943V196.531Z" fill="#FFEFD6"/>
<path d="M17.4073 140.279C21.88 141.949 26.5413 143.044 31.2823 143.538V159.214C26.526 158.75 21.8503 157.654 17.3751 155.955V140.279H17.4073Z" fill="#E8C997"/>
<path d="M46.1529 5.74139V15.1929C46.0905 15.9382 45.8348 16.6534 45.4117 17.2659C44.9886 17.8785 44.4132 18.3664 43.7441 18.6801L43.3265 18.9083V5.87173L43.7762 5.64357C44.4401 5.25532 45.0191 4.73421 45.4784 4.11182C45.8468 4.5816 46.0803 5.14552 46.1529 5.74139Z" fill="#C4A46F"/>
<path d="M46.153 5.93698C46.0759 6.67371 45.8141 7.37809 45.3923 7.98289C44.9706 8.58769 44.4031 9.07271 43.7441 9.39166C41.8495 10.373 39.7528 10.8847 37.6257 10.8847C35.4986 10.8847 33.4017 10.373 31.5071 9.39166C30.7691 9.08603 30.1274 8.5813 29.6519 7.93212C29.1763 7.28294 28.885 6.51405 28.8093 5.70881C28.8277 4.9961 29.0759 4.30922 29.5158 3.75336C29.9776 3.1125 30.5688 2.5791 31.2501 2.18893C33.1447 1.20758 35.2416 0.695923 37.3687 0.695923C39.4958 0.695923 41.5925 1.20758 43.4871 2.18893C44.2678 2.59506 44.9484 3.17431 45.4784 3.8837C45.9272 4.47018 46.1652 5.19458 46.153 5.93698Z" fill="#FFD491"/>
</g>
<defs>
<clipPath id="clip0_2_11695">
<rect width="74" height="246" fill="white" transform="translate(0.0957031 0.885254)"/>
</clipPath>
</defs>
</svg>
