<svg width="76" height="249" viewBox="0 0 76 249" fill="none" xmlns="http://www.w3.org/2000/svg">
<path d="M27.8438 56.9579C22.2123 60.2303 22.4076 65.7933 28.2996 69.0984C31.5375 70.7332 35.1167 71.5682 38.7399 71.534C42.3632 71.4999 45.9259 70.5976 49.1328 68.9021C54.7643 65.4661 54.1785 60.1321 48.2866 56.827C45.1172 55.2032 41.6065 54.3676 38.0493 54.3903C34.4921 54.4131 30.9923 55.2936 27.8438 56.9579Z" fill="#2E2E2E"/>
<path d="M75.0443 222.901C74.1654 217.992 70.3895 213.084 63.7488 209.484C48.8725 201.139 25.2396 201.368 10.9493 210.007C10.9493 210.171 10.4936 213.28 19.185 218.09L37.8699 228.562L19.185 218.09C10.4936 213.214 10.9493 210.171 10.9493 210.007C8.45848 211.28 6.26504 213.07 4.51416 215.259C2.76327 217.448 1.49491 219.986 0.793038 222.704C0.656237 223.35 0.579925 224.008 0.565149 224.668C0.51637 225.354 0.51637 226.043 0.565149 226.729C0.565149 227.122 0.565141 227.646 0.760454 228.038C0.955766 228.431 1.15105 229.478 1.34637 230.067C1.4997 230.553 1.69577 231.024 1.93228 231.474C2.23633 232.124 2.57313 232.757 2.94139 233.372C3.65874 234.533 4.47565 235.628 5.38279 236.645C6.39255 237.697 7.48078 238.671 8.638 239.557C9.92488 240.534 11.2853 241.41 12.707 242.175C14.1735 242.98 15.6842 243.701 17.2318 244.335C18.9048 245 20.6106 245.579 22.3425 246.069C23.905 246.462 26.0209 246.953 27.6159 247.247L30.3178 247.64C31.1316 247.64 32.2383 247.869 33.0521 247.902C33.8659 247.935 35.0053 248.065 35.8191 248.065C36.6329 248.065 37.7722 248.065 38.586 248.065H41.353C42.1668 248.065 43.2735 247.902 44.1199 247.836L46.8217 247.509L49.556 247.018C50.3698 247.018 51.4115 246.626 52.1927 246.462L54.862 245.709C55.6107 245.48 56.5873 245.153 57.3034 244.858L59.9075 243.844L62.1212 242.764C62.7723 242.437 63.6511 241.946 64.2696 241.553L66.5157 240.081C67.2147 239.581 67.8883 239.045 68.5339 238.477C69.2024 237.909 69.8331 237.296 70.422 236.645C71.2154 235.741 71.9545 234.79 72.6355 233.798C73.0698 233.125 73.4612 232.426 73.8073 231.703C74.3567 230.516 74.7505 229.262 74.9792 227.973C75.0654 227.541 75.12 227.104 75.1421 226.664C75.1421 226.173 75.1421 225.551 75.1421 225.093C75.1656 224.361 75.1328 223.628 75.0443 222.901Z" fill="black"/>
<path d="M75.6629 106.436C75.6629 138.637 75.4351 192.926 75.3374 225.159C75.3374 219.432 71.4636 213.705 63.8465 209.484C48.9702 201.139 25.3049 201.401 11.0471 210.007C4.11348 214.229 0.695475 219.596 0.630371 224.995C0.630371 192.762 0.858156 138.473 0.955812 106.24C0.955812 100.808 4.40634 95.4084 11.3399 91.187C25.6303 82.5806 49.263 82.3189 64.1719 90.6962C71.724 94.9503 75.6629 100.71 75.6629 106.436Z" fill="#242424"/>
<path d="M59.0169 66.0116L58.2307 65.2542L57.8048 64.8919L57.0187 64.1345L56.1997 63.3771C56.0606 63.2537 55.9294 63.1218 55.8067 62.9819L54.9877 62.2245L54.1688 61.4671L53.7757 61.1049L52.9895 60.3475L52.1719 59.6484C52.0328 59.5251 51.9083 59.4487 51.759 59.327C51.5778 59.1792 51.1321 58.9763 50.875 58.707C54.1508 62.0001 53.8084 66.0116 49.0585 68.8765C45.8606 70.5447 42.3167 71.432 38.7141 71.4663C35.1114 71.5006 31.5514 70.6811 28.3227 69.0741C23.2124 66.2091 22.4262 61.7305 26.0296 58.3716L17.9384 65.9128C11.9765 71.4452 13.2867 78.8217 21.7055 83.5308C27.0253 86.1999 32.8993 87.5619 38.8446 87.5046C44.79 87.4474 50.6369 85.9726 55.9048 83.2015C63.734 78.4595 64.7168 71.3793 59.0169 66.0116Z" fill="#303030"/>
<path d="M75.6628 106.436C75.6628 105.782 75.6628 104.898 75.6628 104.244C75.6628 103.589 75.6628 102.575 75.6628 101.888C75.6628 100.579 75.3372 98.8772 75.1745 97.5682C75.1745 96.881 74.8815 95.932 74.7513 95.2448C74.6211 94.5576 74.4259 93.6414 74.2631 92.9541C73.9376 91.7106 73.4818 90.0417 73.1237 88.8309C72.9284 88.1437 72.6029 87.2602 72.3751 86.6057C72.1472 85.9512 71.7891 85.0677 71.4961 84.4132C71.0078 83.2351 70.2917 81.6971 69.7383 80.5518C69.4454 79.93 68.9572 79.1119 68.6317 78.4574C68.3062 77.803 67.2969 76.1341 66.2878 74.6942C65.8972 74.1052 65.3764 73.2871 64.9207 72.7308C64.465 72.1744 63.1628 70.4728 62.349 69.4584C61.5352 68.4439 61.2422 68.2149 60.7214 67.6913L58.9962 65.9569C64.6603 71.2909 63.6837 78.3266 55.9037 83.0388C50.6688 85.7925 44.8587 87.258 38.9508 87.3149C33.0428 87.3718 27.2057 86.0184 21.9193 83.366C13.5534 78.6865 12.1538 71.3564 18.176 65.8588C17.6709 66.2869 17.1925 66.7459 16.7437 67.2332C16.2228 67.7567 15.5392 68.4767 15.0509 69.033C14.5626 69.5893 13.1955 71.2255 12.4468 72.3054C11.6981 73.3853 11.4051 73.6798 10.9819 74.2688C10.5587 74.8578 10.0378 75.6432 9.67971 76.2649C9.32164 76.8867 8.18247 78.8174 7.59653 79.9301C7.23846 80.5518 6.81522 81.4026 6.52226 82.0571L5.54573 84.2169C5.05745 85.3949 4.47144 86.9984 4.04827 88.2092C3.8204 88.8637 3.55991 89.7799 3.3646 90.4671C3.3646 90.4671 2.74625 92.496 2.29052 94.8521C2.29052 95.5393 1.96499 96.4556 1.86733 97.1755C1.67202 98.4517 1.4766 100.186 1.34639 101.462C1.34639 102.182 1.34643 103.131 1.18367 103.851C1.02091 104.571 1.18367 105.487 1.18367 106.207C1.18367 111.934 5.02491 117.661 12.6746 121.948C27.5509 130.292 51.2162 130.063 65.474 121.424C72.0821 117.235 75.6628 111.836 75.6628 106.436Z" fill="#2E2E2E"/>
<path d="M52.8764 63.0445C51.319 61.3905 50.4461 59.2026 50.435 56.9251C50.3522 57.9456 50.0092 58.9274 49.439 59.7758C48.8688 60.6241 48.0907 61.3104 47.1798 61.7683C44.5574 63.1728 41.6409 63.9318 38.67 63.983C35.6991 64.0342 32.7586 63.3761 30.0899 62.0628C29.0697 61.6291 28.1856 60.9253 27.5321 60.0262C26.8785 59.1272 26.48 58.0667 26.3789 56.9579C26.3502 59.2443 25.4537 61.4334 23.8726 63.0772C23.9977 64.4153 24.4816 65.6941 25.2727 66.7775C26.0638 67.8609 27.1322 68.7083 28.3646 69.2293C31.573 70.8262 35.1107 71.6405 38.6907 71.6064C42.2707 71.5723 45.7923 70.6907 48.9701 69.033C50.0885 68.4695 51.0388 67.6188 51.7248 66.5672C52.4108 65.5155 52.8081 64.3002 52.8764 63.0445Z" fill="#2E2E2E"/>
<path d="M50.4675 56.9251V32.5786C50.3871 33.6039 50.0453 34.5911 49.4751 35.4451C48.905 36.2991 48.1257 36.9911 47.2123 37.4544C44.5731 38.8362 41.6462 39.5713 38.6706 39.5998C35.695 39.6282 32.7548 38.9492 30.0899 37.618C29.0717 37.1814 28.1895 36.4768 27.5364 35.5783C26.8833 34.6799 26.4834 33.6209 26.3789 32.5131V56.827C26.457 57.9588 26.8452 59.0469 27.5001 59.9709C28.155 60.8949 29.0512 61.6189 30.0899 62.0628C32.7526 63.4017 35.6937 64.085 38.6708 64.0566C41.6478 64.0281 44.5754 63.2887 47.2123 61.8992C48.1413 61.4301 48.9311 60.7235 49.5025 59.8504C50.0739 58.9773 50.4068 57.9684 50.4675 56.9251Z" fill="#242424"/>
<path d="M46.9193 37.5853L48.2214 36.8326C45.1906 38.3612 41.8466 39.1573 38.4558 39.1573C35.065 39.1573 31.721 38.3612 28.6902 36.8326H28.4949L29.8294 37.5853C32.4811 38.9238 35.4072 39.6208 38.3743 39.6208C41.3415 39.6208 44.2676 38.9238 46.9193 37.5853Z" fill="#2E1B18"/>
<path d="M28.7228 9.86822C23.5796 12.977 23.7749 17.951 29.1134 20.9616C32.0748 22.432 35.3392 23.1805 38.642 23.1464C41.9448 23.1123 45.193 22.2966 48.1237 20.7653C53.2669 17.6565 53.1042 12.6825 47.7331 9.67188C44.7717 8.20145 41.5075 7.45297 38.2047 7.48708C34.9019 7.52119 31.6535 8.33693 28.7228 9.86822ZM31.978 11.7662C33.8982 10.7809 36.0232 10.2671 38.1791 10.2671C40.3349 10.2671 42.4602 10.7809 44.3803 11.7662C47.896 13.7296 47.9935 16.9693 44.6406 18.9982C42.7205 19.9835 40.5954 20.4972 38.4396 20.4972C36.2837 20.4972 34.1584 19.9835 32.2383 18.9982C28.7227 17.0347 28.5926 13.7951 31.978 11.7662Z" fill="#242424"/>
<path d="M47.245 6.03947V15.3658C47.1753 16.1122 46.9135 16.8276 46.4854 17.4415C46.0573 18.0554 45.4778 18.5468 44.8035 18.8672L44.3804 19.0963C42.5139 20.008 40.4658 20.4818 38.3907 20.4818C36.3156 20.4818 34.2676 20.008 32.4012 19.0963C31.6552 18.7864 31.0068 18.2788 30.5253 17.6276C30.0437 16.9763 29.747 16.2059 29.6667 15.3985V6.10489C29.6783 5.37801 29.9303 4.67567 30.383 4.10873C30.9084 4.81954 31.5873 5.40136 32.3686 5.81038C34.2371 6.71513 36.2842 7.18498 38.3581 7.18498C40.432 7.18498 42.4793 6.71513 44.3478 5.81038L44.8035 5.58134C45.4784 5.18047 46.0652 4.64607 46.5287 4.01056C46.925 4.51887 47.163 5.13374 47.2124 5.77768C47.2377 5.81577 47.2538 5.85926 47.2595 5.90471C47.2651 5.95015 47.2601 5.9963 47.245 6.03947Z" fill="#D4B078"/>
<path opacity="0.4" d="M17.8502 100.742V160.038V199.307C17.8502 204.477 17.8502 209.68 17.8502 214.916C17.8502 220.152 17.8502 226.108 17.8502 231.736C17.8502 234.452 15.6693 235.532 13.0652 234.158C11.5491 233.446 10.2629 232.32 9.35338 230.908C8.44389 229.496 7.94782 227.855 7.92188 226.173C7.92188 224.602 7.92188 222.901 7.92188 221.395V202.612C7.92188 193.613 7.92188 135.986 7.92188 126.987C7.92188 117.988 7.92189 109.218 8.34507 100.219C8.62839 95.5877 9.73071 91.0443 11.6003 86.802C13.3633 82.3869 16.0626 78.4114 19.5104 75.1523C19.7421 74.8733 20.0304 74.6472 20.356 74.4892C20.6816 74.3312 21.037 74.2449 21.3985 74.2361C22.017 74.2361 22.5378 74.6288 22.8634 75.6105C22.9781 76.0136 22.9935 76.4387 22.9085 76.8492C22.8234 77.2596 22.6404 77.6431 22.375 77.9666C19.0881 85.0893 17.537 92.897 17.8502 100.742Z" fill="white"/>
<path opacity="0.4" d="M33.3451 47.2388C33.3451 50.1185 33.3451 53.0637 33.1498 55.9761C33.0812 57.5013 32.7278 59 32.1081 60.3939C31.504 61.8053 30.6303 63.0838 29.5366 64.1571C29.3412 64.3207 29.1134 64.4843 28.9181 64.4516C28.7227 64.4189 28.5274 64.4516 28.4623 63.9935C28.3972 63.5353 28.4623 63.4372 28.4623 63.2408C29.5695 60.9064 30.0734 58.3291 29.9272 55.7471V37.6835C30.9596 38.1949 32.0538 38.5689 33.1824 38.7961C33.3451 42.4284 33.3451 46.2571 33.3451 47.2388Z" fill="white"/>
<path d="M51.8673 15.3986V32.5786C51.7654 33.7159 51.3691 34.8065 50.7181 35.7422C50.0671 36.678 49.184 37.4262 48.1563 37.9126C45.6699 39.2161 42.9502 40.009 40.1558 40.245C37.3614 40.4809 34.5482 40.1553 31.8803 39.287C30.9453 38.993 30.0404 38.6095 29.1784 38.1417C28.9858 38.0471 28.8009 37.9376 28.6251 37.8144C27.6294 37.2993 26.7828 36.5348 26.167 35.5946C25.5511 34.6545 25.1868 33.5706 25.1094 32.4477V15.2676C25.1976 16.3792 25.567 17.4496 26.1823 18.3774C26.7975 19.3052 27.6384 20.0596 28.6251 20.5689C28.8216 20.7145 29.0283 20.8457 29.2436 20.9616C30.0775 21.4321 30.9621 21.8054 31.8803 22.0742C34.5433 22.9641 37.3577 23.304 40.1546 23.0734C42.9515 22.8429 45.6731 22.0466 48.1563 20.7325C49.184 20.2461 50.0671 19.4979 50.7181 18.5622C51.3691 17.6265 51.7654 16.5358 51.8673 15.3986Z" fill="#242424"/>
<path opacity="0.4" d="M31.7501 22.0742V39.1561C30.8151 38.8621 29.9103 38.4786 29.0482 38.0107C28.8556 37.9161 28.6707 37.8067 28.4949 37.6835V26.5246C28.4949 24.4958 28.4949 22.4669 28.4949 20.438C28.6914 20.5836 28.8981 20.7148 29.1134 20.8307C29.9414 21.3465 30.8262 21.7638 31.7501 22.0742Z" fill="white"/>
<path d="M1.34641 197.409V190.864L1.50913 131.699C1.43462 130.829 1.56875 129.954 1.89994 129.147C2.55098 129.147 2.55083 129.147 3.16932 130.063C5.49669 133.502 8.64066 136.302 12.3164 138.211C25.5272 144.772 40.696 146.149 54.862 142.073C59.6797 140.862 60.0052 144.167 60.1029 145.345L59.9402 210.989V212.036V213.411C59.8493 214.961 59.2938 216.447 58.3467 217.674C57.3997 218.9 56.1053 219.81 54.6342 220.283C40.4815 224.355 25.3284 222.99 12.1211 216.454C8.43737 214.544 5.28307 211.744 2.94143 208.306C1.68443 205.691 1.12364 202.794 1.31382 199.896L1.34641 197.409Z" fill="#E3E3E3"/>
<path d="M18.0781 140.927C22.6138 142.634 27.3527 143.734 32.1732 144.2V159.94C27.3518 159.479 22.6123 158.379 18.0781 156.668V140.927Z" fill="#E8ACAC"/>
<path d="M47.2123 5.87587V15.3658C47.1426 16.1122 46.8808 16.8276 46.4527 17.4415C46.0246 18.0555 45.4451 18.5468 44.7708 18.8673L44.3477 19.0963V6.00674L44.8034 5.7777C45.4783 5.37683 46.0651 4.84248 46.5286 4.20697C46.9076 4.68786 47.1445 5.26614 47.2123 5.87587Z" fill="#C4A46F"/>
<path d="M47.245 6.03967V6.20325C47.1469 6.93666 46.8736 7.63532 46.4484 8.23941C46.0233 8.84349 45.4589 9.33504 44.8035 9.67202C42.8769 10.6551 40.7466 11.1674 38.586 11.1674C36.4254 11.1674 34.2953 10.6551 32.3686 9.67202C31.6332 9.36009 30.9945 8.85542 30.5193 8.21074C30.0441 7.56607 29.7496 6.80498 29.6667 6.00691C29.6783 5.28003 29.9303 4.5777 30.383 4.01075C30.8465 3.37525 31.4333 2.8409 32.1082 2.44002C34.0371 1.46451 36.1665 0.956421 38.3257 0.956421C40.485 0.956421 42.6142 1.46451 44.5431 2.44002C45.3124 2.86672 45.9878 3.44557 46.5287 4.14168C46.9469 4.69033 47.196 5.35022 47.245 6.03967Z" fill="#FFD491"/>
</svg>
