<svg width="74" height="247" viewBox="0 0 74 247" fill="none" xmlns="http://www.w3.org/2000/svg">
<g clip-path="url(#clip0_2_11657)">
<path d="M26.7102 56.6492C21.2289 59.9083 21.3873 65.4488 27.1221 68.7405C30.2763 70.3637 33.7611 71.1898 37.2877 71.1501C40.8144 71.1104 44.2811 70.2061 47.4 68.5124C52.8813 65.2532 52.311 59.8105 46.6079 56.5188C43.5254 54.8936 40.1073 54.057 36.6436 54.0797C33.1798 54.1024 29.7724 54.9837 26.7102 56.6492Z" fill="#4F1827"/>
<path d="M72.5886 221.92C71.7332 216.999 68.058 212.143 61.6261 208.558C47.1148 200.247 24.1121 200.475 10.2345 209.079C10.2345 209.242 9.75931 212.338 18.2189 217.129L36.4055 227.559L18.2189 217.129C9.75931 212.273 10.2028 209.242 10.2345 209.079C7.80642 210.338 5.66651 212.113 3.95668 214.288C2.24686 216.463 1.00624 218.986 0.317392 221.692C0.201594 222.349 0.127484 223.013 0.0955811 223.68C0.0955811 224.299 0.0955811 225.114 0.0955811 225.733C0.135889 226.163 0.210086 226.588 0.317392 227.004C0.317392 227.624 0.666056 228.438 0.85616 229.058C1.04626 229.677 1.23635 230.035 1.42645 230.459C1.73333 231.096 2.07176 231.716 2.44036 232.317C3.11001 233.484 3.89574 234.576 4.78495 235.576C5.77444 236.627 6.83308 237.607 7.95335 238.509C9.21835 239.464 10.5412 240.335 11.9139 241.117C13.1812 241.834 15.0821 242.681 16.3495 243.268C17.9604 243.94 19.6113 244.506 21.2922 244.962C22.813 245.386 24.8725 245.875 26.425 246.136C27.2171 246.136 28.2627 246.429 29.0548 246.559C29.8469 246.69 30.9243 246.787 31.7164 246.82C32.5085 246.853 33.6173 246.983 34.4094 246.983H37.1027H39.7958L42.4888 246.787L45.1504 246.429C45.9425 246.429 47.0196 246.136 47.8117 245.973L50.3466 245.386L52.9447 244.669C53.6734 244.441 54.6238 244.115 55.3525 243.822C56.0813 243.528 57.0953 243.137 57.8557 242.779L60.0419 241.736C60.6756 241.377 61.4992 240.921 62.1012 240.53C62.7032 240.139 63.6538 239.52 64.3192 239.031C65.0027 238.537 65.6585 238.004 66.2836 237.434C66.9345 236.868 67.5485 236.258 68.1213 235.609C68.7866 234.794 69.6738 233.686 70.2758 232.773C70.8778 231.861 71.0678 231.339 71.3846 230.72C71.9193 229.537 72.3029 228.288 72.5254 227.004C72.5254 226.613 72.5254 226.092 72.7155 225.668C72.9056 225.244 72.7155 224.593 72.7155 224.136C72.7317 223.395 72.6892 222.654 72.5886 221.92Z" fill="#2B0E15"/>
<path d="M73.0957 105.927C73.0957 137.965 72.8738 192.034 72.7787 224.136C72.7787 218.466 69.0085 212.762 61.6261 208.558C47.1148 200.214 24.1121 200.475 10.2028 209.079C3.4541 213.284 0.127265 218.596 0.0955811 224.006C0.0955811 191.904 0.28577 137.834 0.380822 105.699C0.380822 100.322 3.77105 94.9441 10.5197 90.7398C24.3974 82.1357 47.3999 81.8749 61.9111 90.2183C69.3569 94.4878 73.0957 100.224 73.0957 105.927Z" fill="#471623"/>
<path d="M56.7151 65.7095L55.9547 64.9599L55.5428 64.6015L54.7824 63.8518L53.9903 63.1023C53.8716 62.9639 53.7446 62.8332 53.6101 62.7111L52.818 61.9616L52.0576 61.2119L51.6457 60.8535L50.8853 60.1038L50.0932 59.3542L49.713 58.9631L48.9209 58.2136C52.2794 61.4727 51.6774 65.6769 47.1149 68.5124C44.0203 70.1738 40.5882 71.0604 37.0976 71.1C33.6071 71.1397 30.1567 70.3313 27.0272 68.7405C22.1161 65.9051 21.3242 61.4726 24.8094 58.1483L16.9834 65.6118C11.2169 71.0545 12.516 78.3876 20.6271 83.0482C25.7803 85.6824 31.4659 87.026 37.22 86.9694C42.9742 86.9127 48.6338 85.4575 53.737 82.7223C61.2778 78.0291 62.2281 71.0219 56.7151 65.7095Z" fill="#571A2B"/>
<path d="M73.0958 105.895C73.0958 105.243 73.0958 104.396 73.0958 103.744C73.0958 103.092 73.0958 102.082 73.0958 101.397C73.0958 100.094 72.7789 98.3662 72.6205 97.0951C72.6205 96.4107 72.367 95.4655 72.2403 94.7811C72.1135 94.0967 71.9235 93.1841 71.7334 92.4997C71.4482 91.2612 70.9729 89.5991 70.6244 88.3606C70.4342 87.7088 70.1175 86.8287 69.8957 86.1443C69.6739 85.4599 69.3253 84.6125 69.0719 83.9933C68.5966 82.82 67.8679 81.2882 67.3293 80.1475C67.0441 79.4957 66.6005 78.681 66.2519 78.0617C65.9034 77.4425 64.953 75.7477 64.0025 74.2811C63.5906 73.6945 63.0837 72.9123 62.6401 72.3582C62.1965 71.8042 60.929 70.1094 60.1369 69.0991L58.5845 67.3391L56.8736 65.6444C62.3866 70.9568 61.4361 77.964 53.8953 82.6571C48.7921 85.3923 43.1325 86.8476 37.3784 86.9042C31.6242 86.9608 25.9386 85.6172 20.7854 82.983C12.6426 78.3224 11.2802 70.9894 17.1417 65.5466C16.6501 65.973 16.1845 66.4301 15.7476 66.9154C15.2406 67.4369 14.5754 68.1539 14.1002 68.708C13.6249 69.2621 12.294 70.8916 11.5653 71.9671C10.8365 73.0427 10.5833 73.3359 10.1714 73.9552C9.75947 74.5744 9.25242 75.324 8.87221 75.9432C8.492 76.5624 7.4147 78.4854 6.84439 79.5609C6.27408 80.6364 6.11579 81.0601 5.79895 81.7119C5.48211 82.3638 5.13347 83.2112 4.87999 83.863C4.40473 85.0363 3.83454 86.6333 3.42265 87.8391C3.16918 88.491 2.91561 89.4035 2.7255 90.088C2.7255 90.088 2.15514 92.1086 1.67988 94.4552C1.67988 95.1396 1.36302 96.0521 1.26797 96.7692C1.07786 98.0402 0.887845 99.7676 0.761108 101.039C0.761108 101.756 0.761108 102.701 0.761108 103.385C0.761108 104.07 0.761108 105.047 0.761108 105.764C0.761108 111.468 4.49992 117.171 11.9457 121.441C26.4569 129.752 49.4595 129.524 63.3688 120.919C69.7373 116.683 73.0958 111.305 73.0958 105.895Z" fill="#4F1827"/>
<path d="M51.0436 62.7111C49.5391 61.0433 48.692 58.8591 48.6673 56.584C48.5891 57.6052 48.2565 58.5884 47.7016 59.4389C47.1466 60.2895 46.388 60.9787 45.4989 61.4401C42.9231 62.7907 40.073 63.4949 37.1819 63.4949C34.2907 63.4949 31.4406 62.7907 28.8648 61.4401C27.8639 61.0159 26.9951 60.3178 26.3527 59.4214C25.7104 58.5251 25.3191 57.4648 25.2212 56.3558C25.1862 58.6253 24.3272 60.7992 22.8132 62.4504C22.9288 63.7805 23.3936 65.0533 24.1582 66.1326C24.9228 67.2118 25.9584 68.057 27.1539 68.5776C30.2834 70.1683 33.7337 70.9768 37.2242 70.9371C40.7147 70.8975 44.1469 70.0109 47.2415 68.3494C48.2865 67.8163 49.1833 67.0196 49.8481 66.0337C50.513 65.0478 50.9243 63.9047 51.0436 62.7111Z" fill="#4F1827"/>
<path d="M48.6672 56.584V32.3685C48.5928 33.3866 48.2614 34.3671 47.7057 35.2131C47.15 36.059 46.3893 36.7412 45.4988 37.1921C42.9325 38.5734 40.085 39.3111 37.1887 39.345C34.2925 39.379 31.4293 38.7083 28.833 37.3876C27.838 36.9545 26.9748 36.2539 26.3337 35.3593C25.6926 34.4647 25.2974 33.4092 25.1895 32.3033V56.5187C25.2873 57.6277 25.6786 58.688 26.3209 59.5843C26.9633 60.4807 27.8321 61.1788 28.833 61.603C31.4088 62.9536 34.2589 63.6578 37.1501 63.6578C40.0412 63.6578 42.8913 62.9536 45.4671 61.603C46.3842 61.132 47.1635 60.4195 47.7256 59.5378C48.2878 58.6561 48.6127 57.6369 48.6672 56.584Z" fill="#471623"/>
<path d="M45.2139 37.2899L46.5129 36.5403C43.5615 38.0577 40.3072 38.8477 37.0077 38.8477C33.7081 38.8477 30.4538 38.0577 27.5024 36.5403L28.7699 37.2899C31.324 38.5986 34.1384 39.2797 36.9918 39.2797C39.8452 39.2797 42.6598 38.5986 45.2139 37.2899Z" fill="#2E1B18"/>
<path d="M27.5341 9.75014C22.528 12.8463 22.6864 17.8002 27.9143 20.766C30.7921 22.2431 33.969 22.9985 37.1851 22.9702C40.4012 22.9418 43.5648 22.1307 46.4176 20.6031C51.4237 17.3439 51.2336 12.553 46.0374 9.5546C43.1571 8.08249 39.979 7.33272 36.7629 7.36671C33.5469 7.40069 30.3844 8.21747 27.5341 9.75014ZM30.7025 11.6405C32.5714 10.6591 34.6398 10.1474 36.7382 10.1474C38.8366 10.1474 40.9051 10.6591 42.7741 11.6405C46.196 13.5959 46.2911 16.8225 43.0276 18.8431C41.1587 19.8245 39.0901 20.3361 36.9917 20.3361C34.8933 20.3361 32.825 19.8245 30.956 18.8431C27.5341 16.8876 27.439 13.6611 30.7025 11.6405Z" fill="#571A2B"/>
<path d="M45.5306 5.93695V15.1929C45.4681 15.942 45.2158 16.6613 44.7989 17.2788C44.3819 17.8964 43.8149 18.3908 43.1543 18.7128L42.7741 18.9409C40.95 19.8425 38.9521 20.3106 36.9283 20.3106C34.9046 20.3106 32.9068 19.8425 31.0827 18.9409C30.3601 18.622 29.7345 18.1087 29.2717 17.4548C28.8089 16.8009 28.5259 16.0308 28.4529 15.2255V6.06729C28.471 5.35459 28.716 4.6677 29.15 4.11184C29.6796 4.79336 30.3368 5.35857 31.0827 5.77398C32.9049 6.68249 34.9034 7.15445 36.9283 7.15445C38.9532 7.15445 40.952 6.68249 42.7741 5.77398L43.186 5.54582C43.8439 5.13552 44.4236 4.60542 44.8969 3.98145C45.262 4.4967 45.4813 5.10585 45.5306 5.74141C45.5524 5.80467 45.5524 5.87369 45.5306 5.93695Z" fill="#D4B078"/>
<path opacity="0.4" d="M16.9198 100.224V159.312V198.422C16.9198 203.571 16.9198 208.721 16.9198 213.935C16.9198 219.15 16.9198 225.114 16.9198 230.72C16.9198 233.425 14.7971 234.501 12.2941 233.132C10.8103 232.43 9.54976 231.312 8.65826 229.904C7.76676 228.497 7.28058 226.859 7.25623 225.179C7.25623 223.615 7.25623 221.92 7.25623 220.388V201.714C7.25623 192.751 7.25623 135.357 7.25623 126.362C7.25623 117.367 7.25627 108.698 7.69985 99.735C7.95985 95.1201 9.03345 90.5923 10.8683 86.3725C12.5997 81.9743 15.2246 78.0073 18.5674 74.7374C18.7936 74.4542 19.0795 74.2279 19.4034 74.0754C19.7274 73.923 20.0808 73.8484 20.4369 73.8574C21.0389 73.8574 21.5142 74.2485 21.831 75.1937C21.954 75.5992 21.9748 76.0302 21.8917 76.4463C21.8086 76.8624 21.6242 77.25 21.3557 77.5728C18.1632 84.6583 16.6432 92.4195 16.9198 100.224Z" fill="white"/>
<path opacity="0.4" d="M31.8747 47.0673C31.8747 49.9354 31.8747 52.8687 31.8747 55.7693C31.7862 57.2782 31.4318 58.7579 30.8291 60.1365C30.2522 61.5581 29.4008 62.8443 28.3261 63.9172C28.2561 64.0102 28.1638 64.083 28.0583 64.1287C27.9529 64.1744 27.8378 64.1913 27.7241 64.1778C27.6118 64.1781 27.5034 64.1345 27.4211 64.0559C27.3388 63.9773 27.2885 63.8694 27.2805 63.7541C27.2805 63.3956 27.2805 63.1676 27.2805 63.0046C28.373 60.6847 28.8641 58.1138 28.7063 55.5411V37.5507C29.7112 38.06 30.7763 38.4325 31.8747 38.6588C31.8747 42.0809 31.8747 45.9592 31.8747 47.0673Z" fill="white"/>
<path d="M50.0297 15.2255V32.3359C49.9388 33.471 49.5606 34.5617 48.9324 35.4995C48.3042 36.4372 47.4481 37.1894 46.4494 37.6809C44.0282 38.9773 41.3799 39.7633 38.6595 39.9928C35.9391 40.2223 33.2015 39.8906 30.6073 39.0172C29.6931 38.7504 28.8111 38.3787 27.9777 37.9091L27.4389 37.5832C26.4699 37.0701 25.6458 36.3087 25.0464 35.3724C24.447 34.4361 24.0926 33.3566 24.0172 32.2382V15.1277C24.1031 16.2347 24.4624 17.3008 25.0613 18.2249C25.6602 19.1489 26.4786 19.9002 27.4389 20.4075L28.041 20.7986C28.8526 21.2672 29.7137 21.639 30.6073 21.9067C33.1993 22.793 35.9387 23.1315 38.661 22.9019C41.3833 22.6722 44.0324 21.8792 46.4494 20.5704C47.4481 20.0789 48.3042 19.3268 48.9324 18.389C49.5606 17.4512 49.9388 16.3605 50.0297 15.2255Z" fill="#4F1827"/>
<path opacity="0.4" d="M30.4489 21.9068V39.0173C29.5347 38.7505 28.6525 38.3788 27.8191 37.9092L27.2805 37.5832V26.4695C27.2805 24.4489 27.2805 22.4283 27.2805 20.4076L27.8825 20.7987C28.6942 21.2673 29.5552 21.6391 30.4489 21.9068Z" fill="white"/>
<path d="M0.856241 196.531V190.013V131.088C0.823492 130.211 0.997332 129.339 1.3631 128.546C2.02847 128.546 2.02851 128.546 2.59882 129.458C4.87802 132.883 7.94821 135.671 11.5337 137.574C24.3745 144.153 39.1361 145.582 52.9448 141.582C57.634 140.376 57.9508 143.668 58.0776 144.841L57.8875 210.024V211.067V212.436C57.799 213.98 57.2582 215.46 56.3364 216.682C55.4145 217.903 54.1549 218.809 52.723 219.28C38.9453 223.341 24.1905 221.97 11.3436 215.435C7.75126 213.542 4.67881 210.752 2.40873 207.319C1.19337 204.713 0.65836 201.827 0.856241 198.943V196.531Z" fill="#FFEFD6"/>
<path d="M17.2051 140.279C21.6163 141.952 26.2151 143.047 30.8926 143.538V159.214C26.2006 158.75 21.5881 157.654 17.1733 155.955V140.279H17.2051Z" fill="#E8C997"/>
<path d="M45.4989 5.77396V15.1929C45.4364 15.942 45.1841 16.6612 44.7672 17.2788C44.3502 17.8964 43.7832 18.3908 43.1226 18.7128L42.7424 18.9409V5.9043L43.1543 5.67619C43.8122 5.26589 44.392 4.7358 44.8652 4.11182C45.2144 4.59918 45.4329 5.17236 45.4989 5.77396Z" fill="#C4A46F"/>
<path d="M45.5306 5.93689C45.4545 6.67362 45.1961 7.378 44.7801 7.9828C44.3641 8.5876 43.8044 9.07262 43.1543 9.39157C41.2798 10.3732 39.2062 10.8849 37.1027 10.8849C34.9993 10.8849 32.9255 10.3732 31.051 9.39157C30.3308 9.07826 29.7063 8.57068 29.2434 7.92243C28.7805 7.27418 28.4964 6.50932 28.4211 5.70872C28.4393 4.99601 28.6843 4.30912 29.1183 3.75327C29.5694 3.12033 30.1406 2.5881 30.7974 2.18884C32.6727 1.20975 34.7462 0.699463 36.8492 0.699463C38.9522 0.699463 41.0255 1.20975 42.9008 2.18884C43.6709 2.59497 44.3423 3.17422 44.8652 3.88361C45.2801 4.48494 45.5118 5.19971 45.5306 5.93689Z" fill="#FFD491"/>
</g>
<defs>
<clipPath id="clip0_2_11657">
<rect width="73" height="246" fill="white" transform="translate(0.0957031 0.885254)"/>
</clipPath>
</defs>
</svg>
