<svg width="76" height="248" viewBox="0 0 76 248" fill="none" xmlns="http://www.w3.org/2000/svg">
<path d="M27.3926 56.7638C21.7611 60.023 21.9565 65.5635 27.8484 68.8552C31.0942 70.4604 34.6724 71.2764 38.2923 71.2367C41.9123 71.1971 45.4719 70.303 48.6818 68.6272C54.3133 65.368 53.7274 59.9252 47.8354 56.6334C44.6684 55.0083 41.1568 54.1717 37.5981 54.1944C34.0395 54.2171 30.5387 55.0984 27.3926 56.7638Z" fill="#FEAD59"/>
<path d="M74.5932 222.035C73.7142 217.114 69.9383 212.258 63.2977 208.64C48.4214 200.329 24.7883 200.59 10.4979 209.194C10.4979 209.357 10.0423 212.453 18.7337 217.244L37.4185 227.673L18.7337 217.244C10.0423 212.388 10.4653 209.357 10.4979 209.194C8.00312 210.448 5.8058 212.222 4.05384 214.398C2.30189 216.574 1.03602 219.1 0.341667 221.807C0.20633 222.461 0.130243 223.127 0.113977 223.795C0.0651977 224.478 0.0651977 225.165 0.113977 225.848C0.144701 226.276 0.209812 226.702 0.309083 227.119C0.469885 227.802 0.665627 228.477 0.895196 229.14C1.04242 229.636 1.23888 230.117 1.48131 230.574C1.74172 231.128 2.16469 231.878 2.49022 232.432C3.18846 233.6 4.0067 234.692 4.93162 235.691C5.93288 236.748 7.02184 237.718 8.18683 238.591C9.46664 239.568 10.8157 240.45 12.2233 241.231C13.5579 241.948 15.4785 242.796 16.7806 243.382C18.4536 244.036 20.1593 244.601 21.8911 245.077C23.4536 245.501 25.5699 245.99 27.1324 246.25L29.8666 246.674C30.6804 246.674 31.7871 246.902 32.6009 246.935C33.4147 246.967 34.5214 247.098 35.3677 247.098H38.1346H40.9018L43.6687 246.902L46.3704 246.544C47.2167 246.544 48.2912 246.25 49.105 246.087L51.7415 245.501L54.4106 244.751L56.852 243.936L59.4238 242.894C60.1074 242.6 61.019 242.176 61.6701 241.818C62.3211 241.459 63.1672 241.036 63.8182 240.645L66.0645 239.145C66.7728 238.66 67.447 238.126 68.0827 237.548C68.7436 236.974 69.3737 236.364 69.9706 235.723C70.7717 234.829 71.5114 233.882 72.1843 232.888C72.6183 232.229 73.0097 231.543 73.3562 230.835C73.8963 229.637 74.2897 228.379 74.528 227.087C74.528 226.696 74.528 226.174 74.528 225.783C74.528 225.392 74.528 224.708 74.528 224.251C74.6095 223.515 74.6313 222.774 74.5932 222.035Z" fill="#E08830"/>
<path d="M75.0816 106.01C75.0816 138.112 74.886 192.246 74.8209 224.349C74.8209 218.645 70.9474 212.942 63.2977 208.64C48.454 200.362 24.7883 200.557 10.5305 209.161C3.59693 213.366 0.114014 218.743 0.114014 224.121C0.114014 192.018 0.341735 137.917 0.374287 105.781C0.374287 100.404 3.8576 95.0262 10.7912 90.8871C25.049 82.283 48.7468 82.0222 63.5906 90.3005C71.2403 94.5699 75.1467 100.306 75.0816 106.01Z" fill="#FE9B36"/>
<path d="M58.2843 65.8243L57.4705 65.0748L57.0799 64.7162C56.8244 64.4497 56.5526 64.1993 56.2661 63.9666L55.4848 63.217L55.0942 62.8259L54.2804 62.0763L53.4666 61.3267L53.076 60.9682L52.2622 60.2186L51.481 59.469L51.0904 59.0778L50.2766 58.3283C53.5318 61.5874 53.1084 65.7918 48.3883 68.6272C45.2131 70.2833 41.6929 71.1669 38.1129 71.2065C34.5329 71.2462 30.994 70.4406 27.783 68.8553C22.7049 66.0198 21.9238 61.5874 25.5045 58.2631L17.4638 65.7265C11.5393 71.1693 12.8415 78.5024 21.2074 83.1629C26.4986 85.7919 32.3359 87.1299 38.2424 87.0676C44.1489 87.0053 49.9573 85.5445 55.192 82.8045C62.9719 78.2743 63.9483 71.1041 58.2843 65.8243Z" fill="#FEB56B"/>
<path d="M75.1141 106.01C75.1141 105.358 75.1141 104.51 75.1141 103.859C75.1141 103.207 75.1141 102.196 75.1141 101.479C75.1141 100.208 74.7885 98.4809 74.6257 97.2098C74.6257 96.4928 74.3327 95.5803 74.2025 94.8959C74.0723 94.2115 73.8769 93.2989 73.7141 92.6144C73.3886 91.376 72.933 89.7138 72.5749 88.4754C72.3796 87.8235 72.0541 86.9436 71.7937 86.2592C71.5333 85.5748 71.2403 84.7273 70.9473 84.0755C70.6543 83.4237 69.7427 81.403 69.1894 80.2623C68.636 79.1216 68.4082 78.7957 68.0827 78.1765C67.7572 77.5572 66.7482 75.8625 65.739 74.3959C65.3484 73.8092 64.7949 73.027 64.3717 72.473C63.9485 71.9189 62.5812 70.2242 61.8 69.2138C61.0187 68.2035 60.6932 67.9753 60.1724 67.4539C59.6515 66.9324 58.9682 66.248 58.4474 65.7591C64.1115 71.039 63.1349 78.0787 55.1922 82.7392C49.9575 85.4792 44.1492 86.94 38.2426 87.0023C32.3361 87.0647 26.4988 85.7267 21.2076 83.0978C12.8417 78.4372 11.4419 71.1041 17.4641 65.6614C16.959 66.0878 16.4808 66.5449 16.0319 67.0302C15.5111 67.5516 14.8275 68.2687 14.3392 68.8227C13.8509 69.3768 12.4835 71.0064 11.7023 72.0819L10.2702 74.0699C9.87954 74.6566 9.32608 75.4388 8.96801 76.058C8.60993 76.6773 7.47053 78.5675 6.85204 79.6756C6.52652 80.2949 6.10352 81.1748 5.81055 81.7941L4.83383 83.9777C4.34555 85.151 3.75974 86.748 3.33656 87.9539C3.10869 88.6057 2.8484 89.5183 2.65309 90.2027C2.65309 90.2027 2.03435 92.2234 1.57862 94.5699C1.57862 95.2544 1.25308 96.167 1.15543 96.8514C0.960114 98.155 0.765055 99.8497 0.602295 101.153C0.602295 101.87 0.602295 102.783 0.602295 103.5C0.602295 104.217 0.602295 105.162 0.602295 105.879C0.602295 111.583 4.44314 117.286 12.0929 121.556C26.9692 129.866 50.6348 129.638 64.8927 121.034C71.6309 116.797 75.0815 111.387 75.1141 106.01Z" fill="#FEAD59"/>
<path d="M52.4576 62.7933C50.8946 61.1496 50.0208 58.9683 50.0162 56.6987C49.9297 57.7182 49.5855 58.6988 49.016 59.5484C48.4465 60.3979 47.6705 61.0884 46.761 61.5548C44.1217 62.931 41.1949 63.6632 38.2192 63.6915C35.2436 63.7199 32.3035 63.0436 29.6385 61.7178C28.6204 61.283 27.7382 60.5812 27.0851 59.6863C26.432 58.7915 26.0321 57.7368 25.9276 56.6335C25.8923 58.9094 24.997 61.0873 23.4214 62.7282C23.5533 64.0587 24.0398 65.3293 24.83 66.4071C25.6203 67.485 26.6853 68.3305 27.9136 68.8553C31.1246 70.4406 34.6635 71.2462 38.2435 71.2065C41.8235 71.1669 45.3437 70.2833 48.5189 68.6272C49.6232 68.0787 50.5664 67.2529 51.2568 66.2304C51.9471 65.2079 52.3609 64.0237 52.4576 62.7933Z" fill="#FEAD59"/>
<path d="M50.0161 56.6987V32.4833C49.9334 33.4997 49.5905 34.4774 49.0203 35.3224C48.4501 36.1673 47.6718 36.8507 46.7609 37.3068C44.1242 38.6881 41.1988 39.4259 38.2231 39.4598C35.2475 39.4938 32.3059 38.8231 29.6385 37.5023C28.6223 37.0646 27.7421 36.362 27.0894 35.4678C26.4367 34.5735 26.0354 33.5204 25.9275 32.4181V56.6335C26.032 57.7368 26.4319 58.7915 27.085 59.6863C27.7381 60.5812 28.6203 61.283 29.6385 61.7178C32.3034 63.0436 35.2435 63.7199 38.2192 63.6915C41.1948 63.6632 44.1216 62.931 46.7609 61.5548C47.6704 61.0884 48.4465 60.3979 49.0159 59.5484C49.5854 58.6988 49.9296 57.7182 50.0161 56.6987Z" fill="#FE9B36"/>
<path d="M46.468 37.4372L47.7702 36.6876C44.7394 38.21 41.3954 39.0027 38.0046 39.0027C34.6137 39.0027 31.2698 38.21 28.239 36.6876H28.0435C28.4992 36.9157 28.9224 37.1765 29.3456 37.4372C31.9985 38.7856 34.9317 39.4883 37.9068 39.4883C40.882 39.4883 43.8152 38.7856 46.468 37.4372Z" fill="#2E1B18"/>
<path d="M28.2716 9.83231C23.1284 12.9285 23.3237 17.8498 28.6622 20.8482C31.6214 22.3203 34.8865 23.0701 38.1906 23.0361C41.4948 23.0021 44.7442 22.1854 47.6725 20.6527C52.8158 17.5565 52.653 12.6352 47.2819 9.63677C44.3227 8.16466 41.0573 7.41493 37.7531 7.44892C34.449 7.48291 31.2 8.29963 28.2716 9.83231ZM31.5268 11.7226C33.4504 10.7332 35.5815 10.2172 37.744 10.2172C39.9065 10.2172 42.038 10.7332 43.9616 11.7226C47.4772 13.6781 47.5751 16.9047 44.2222 18.9253C42.2963 19.907 40.1658 20.4186 38.0047 20.4186C35.8436 20.4186 33.713 19.907 31.7871 18.9253C28.304 16.9699 28.174 13.7432 31.5268 11.7226Z" fill="#FEB56B"/>
<path d="M46.7609 6.019V15.3076C46.6935 16.0558 46.4332 16.7736 46.0052 17.3907C45.5772 18.0078 44.9962 18.5029 44.3195 18.8275C42.4017 19.8166 40.276 20.3326 38.1187 20.3326C35.9614 20.3326 33.8352 19.8166 31.9174 18.8275C31.1673 18.525 30.5151 18.021 30.0327 17.3712C29.5503 16.7214 29.2559 15.951 29.1827 15.1447V5.98648C29.1943 5.26254 29.4465 4.563 29.8992 3.99835C30.4317 4.69962 31.1089 5.27774 31.8848 5.69317C33.8115 6.67227 35.9417 7.1825 38.1024 7.1825C40.263 7.1825 42.3929 6.67227 44.3195 5.69317C44.9944 5.29392 45.5814 4.76168 46.0449 4.12875C46.4904 4.65956 46.7427 5.32592 46.7609 6.019Z" fill="#D4B078"/>
<path opacity="0.4" d="M17.3988 100.339V159.427V198.537C17.3988 203.719 17.3988 208.868 17.3988 214.083C17.3988 219.297 17.3988 225.262 17.3988 230.867C17.3988 233.572 15.1854 234.615 12.6138 233.279C11.1001 232.567 9.81622 231.444 8.90718 230.039C7.99813 228.633 7.50044 227.001 7.4707 225.327C7.4707 223.73 7.4707 222.068 7.4707 220.536V201.861C7.4707 192.898 7.4707 135.505 7.4707 126.509C7.4707 117.514 7.47075 108.845 7.92648 99.8497C8.20949 95.2477 9.3119 90.7334 11.1817 86.5198C12.9479 82.1149 15.6463 78.1454 19.0916 74.8847C19.7101 74.3306 20.3289 73.8744 20.9799 74.0048C21.3333 74.0451 21.6651 74.1959 21.928 74.4358C22.191 74.6757 22.3716 74.9924 22.4446 75.341C22.5622 75.7422 22.579 76.1662 22.4939 76.5755C22.4087 76.9848 22.2241 77.3668 21.9562 77.6876C18.6668 84.77 17.1047 92.5334 17.3988 100.339Z" fill="white"/>
<path opacity="0.4" d="M32.7311 47.0842C32.7311 49.9523 32.7311 52.853 32.7311 55.7862C32.573 58.8623 31.2727 61.7682 29.0853 63.934C29.0133 64.0271 28.9182 64.0999 28.8099 64.1456C28.7016 64.1913 28.5834 64.2082 28.4666 64.1947C28.3038 64.1947 28.0759 64.1948 28.0434 63.7385C27.9836 63.6285 27.9524 63.5052 27.9524 63.3799C27.9524 63.2547 27.9836 63.1315 28.0434 63.0215C29.148 60.6957 29.6519 58.1294 29.5085 55.558V37.535C30.5334 38.0692 31.6297 38.4533 32.7637 38.6757C32.7311 42.1956 32.7311 46.0739 32.7311 47.0842Z" fill="white"/>
<path d="M51.416 15.3402V32.4507C51.3196 33.5891 50.9261 34.6821 50.2748 35.6202C49.6235 36.5583 48.7372 37.3085 47.705 37.7956C45.217 39.0903 42.496 39.8754 39.7013 40.1048C36.9067 40.3343 34.0945 40.0035 31.429 39.1319C30.4929 38.8561 29.5877 38.4848 28.7273 38.0238L28.1738 37.6653C27.1766 37.1594 26.3264 36.4048 25.705 35.4743C25.0835 34.5439 24.7118 33.4689 24.6257 32.3529V15.2424C24.7172 16.3527 25.0914 17.421 25.7125 18.3453C26.3337 19.2696 27.181 20.0191 28.1738 20.5222L28.7921 20.9133C29.6362 21.3607 30.5189 21.7315 31.429 22.0214C34.0945 22.893 36.9067 23.2238 39.7013 22.9943C42.496 22.7649 45.217 21.9798 47.705 20.6851C48.7372 20.198 49.6235 19.4478 50.2748 18.5097C50.9261 17.5716 51.3196 16.4786 51.416 15.3402Z" fill="#FEAD59"/>
<path opacity="0.4" d="M31.2987 22.0214V39.1645C30.3626 38.8887 29.4573 38.5174 28.597 38.0564L28.0435 37.6979V26.6168C28.0435 24.5962 28.0435 22.5755 28.0435 20.5549L28.6622 20.946C29.5074 21.3821 30.3896 21.742 31.2987 22.0214Z" fill="white"/>
<path d="M0.895282 196.614V190.095V131.17C0.816879 130.304 0.950953 129.431 1.28589 128.628C1.93693 128.628 1.93695 128.628 2.52289 129.541C4.88058 132.951 8.03076 135.736 11.7024 137.656C24.9174 144.175 40.0806 145.546 54.2482 141.502C59.0659 140.296 59.3914 143.555 59.489 144.761V210.172V211.182V212.583C59.405 214.124 58.8558 215.604 57.9143 216.826C56.9727 218.048 55.6831 218.955 54.2156 219.428C40.0605 223.489 24.9012 222.117 11.7024 215.582C8.01159 213.69 4.85517 210.899 2.52289 207.467C1.2558 204.866 0.69447 201.977 0.895282 199.091V196.614Z" fill="#FFEFD6"/>
<path d="M17.627 140.361C22.1669 142.046 26.9037 143.141 31.7219 143.62V159.296C26.9142 158.818 22.1881 157.723 17.6595 156.037V140.328L17.627 140.361Z" fill="#E8C997"/>
<path d="M46.761 5.8561V15.3076C46.6914 16.0468 46.4333 16.7556 46.0115 17.3662C45.5897 17.9769 45.0183 18.4688 44.3521 18.7949L43.929 19.0231V5.9865L44.3521 5.75833C45.0361 5.35901 45.6338 4.82715 46.1101 4.19391C46.4649 4.68344 46.6888 5.25559 46.761 5.8561Z" fill="#C4A46F"/>
<path d="M46.761 6.01906V6.18207C46.683 6.91459 46.4216 7.61541 46.0004 8.21944C45.5792 8.82346 45.0121 9.31105 44.3521 9.63676C42.4255 10.6159 40.2952 11.1261 38.1346 11.1261C35.9739 11.1261 33.8441 10.6159 31.9174 9.63676C31.1795 9.32054 30.5397 8.81211 30.0645 8.16443C29.5893 7.51675 29.296 6.75346 29.2153 5.95391C29.2269 5.22997 29.4791 4.53053 29.9318 3.96588C30.3972 3.34349 30.9839 2.82233 31.6567 2.43408C33.5826 1.45245 35.7132 0.940674 37.8743 0.940674C40.0354 0.940674 42.166 1.45245 44.0919 2.43408C44.8738 2.8405 45.5529 3.42008 46.0775 4.1288C46.5112 4.66398 46.7519 5.32991 46.761 6.01906Z" fill="#FFD491"/>
</svg>
