<svg width="76" height="249" viewBox="0 0 76 249" fill="none" xmlns="http://www.w3.org/2000/svg">
<path d="M74.8857 140.907V178.28H0.110535V136.069C0.204175 134.643 0.378677 133.223 0.633209 131.816L1.05788 129.511C1.54789 127.173 2.1359 125.16 2.1359 125.16C2.36457 124.478 2.62591 123.569 2.85458 122.919C3.27925 121.718 3.86726 120.127 4.35727 118.958C4.6186 118.309 5.01061 117.432 5.33728 116.815C5.44399 116.618 5.5315 116.412 5.59862 116.198L6.28463 114.575C6.28463 114.315 6.57864 114.023 6.77464 113.73L7.32998 112.789C7.91799 111.847 8.506 110.938 9.02867 109.964C11.869 105.113 14.358 100.068 16.4768 94.8656C17.4568 92.4629 18.3715 89.9952 19.1882 87.495H19.3515C23.2791 75.6137 25.2536 63.1807 25.1989 50.6746V7.13302L26.1789 6.48363L27.2243 5.89918C27.7143 5.63942 28.2696 5.41213 28.7923 5.18485C33.8369 3.39203 39.319 3.21039 44.4726 4.66533C45.0695 4.79641 45.6501 4.99241 46.2039 5.24979C46.7513 5.44355 47.2859 5.67129 47.8046 5.93164L48.4253 6.25634L49.5033 6.90573V55.6749C49.9682 66.3873 51.9138 76.9852 55.2854 87.1703C56.1674 89.8653 57.1474 92.5278 58.2254 95.1254C60.2838 100.142 62.685 105.013 65.4122 109.704C66.1962 111.035 67.0129 112.367 67.8296 113.665L68.6136 115.159L69.1363 116.231C69.5609 117.14 70.0183 118.146 70.3776 118.99C70.737 119.835 70.9983 120.484 71.227 121.166C71.4556 121.848 71.7823 122.692 71.9783 123.341C72.3703 124.575 72.8277 126.231 73.1543 127.465C73.1543 128.147 73.5137 129.056 73.6443 129.738C73.775 130.42 73.9383 131.361 74.0363 132.043C74.2324 133.31 74.4284 135.03 74.5264 136.329V139.576C74.4284 140.096 74.8857 140.518 74.8857 140.907Z" fill="#78BB57"/>
<path d="M74.8856 140.907V226.692C74.9204 227.131 74.8649 227.573 74.7223 227.991C74.4832 229.271 74.0768 230.516 73.5136 231.692C73.1845 232.412 72.8024 233.106 72.3702 233.77C71.7496 234.647 70.8676 235.783 70.1489 236.595C69.5498 237.234 68.9174 237.841 68.2542 238.413C67.5968 238.979 66.9098 239.51 66.1962 240.004C65.5428 240.459 64.6281 241.076 63.9094 241.498L62.0474 242.504C61.5846 242.245 61.1043 242.017 60.6101 241.823L59.4014 241.303C58.4867 240.913 57.5393 240.556 56.592 240.232H56.3633C55.4103 239.88 54.44 239.576 53.456 239.322C52.6719 239.095 51.8879 238.868 51.0713 238.706L47.8045 238.024C46.7237 237.827 45.6333 237.686 44.5378 237.602H43.8518C43.1985 237.602 42.5125 237.602 41.8591 237.407H40.2584C38.3868 237.309 36.5113 237.309 34.6397 237.407H33.1696C32.0762 237.445 30.9857 237.543 29.9029 237.699C28.7269 237.699 27.8776 237.959 26.8975 238.121H26.2115C25.1662 238.121 24.1208 238.511 23.1082 238.738L20.9848 239.29C19.7434 239.615 18.5021 240.037 17.3261 240.459L16.0847 240.978C15.17 241.346 14.288 241.736 13.4387 242.147L12.818 242.407L12.2953 242.147C10.8824 241.37 9.52859 240.491 8.24459 239.517C7.07303 238.65 5.97996 237.684 4.97787 236.627C4.05095 235.632 3.22992 234.544 2.52783 233.381C2.14765 232.771 1.79875 232.142 1.48248 231.497C1.25311 231.046 1.0566 230.58 0.894472 230.101C0.674956 229.44 0.4896 228.768 0.339131 228.088C0.241986 227.671 0.176467 227.248 0.143127 226.822V139.511C0.535343 136.877 1.51654 134.363 3.01462 132.154C4.51269 129.946 6.48956 128.1 8.79993 126.751C9.35527 126.361 9.91061 126.004 10.5313 125.647C12.9831 124.206 15.5775 123.02 18.2734 122.108C20.7532 121.238 23.2983 120.565 25.8849 120.094C33.5602 118.665 41.4358 118.665 49.1112 120.094C54.0807 120.983 58.8769 122.648 63.3214 125.03C70.4755 128.991 74.3629 134.219 74.8203 139.511C74.8691 139.975 74.8909 140.441 74.8856 140.907Z" fill="#52803B"/>
<path d="M74.6244 223.185C73.8523 220.258 72.4305 217.54 70.4632 215.231C68.496 212.922 66.0334 211.08 63.2562 209.84C48.3273 201.56 24.5783 201.788 10.2047 210.392C7.7211 211.671 5.53775 213.457 3.79805 215.634C2.05835 217.811 0.801666 220.329 0.110535 223.023C0.142009 223.282 0.142009 223.543 0.110535 223.802V227.049C0.143874 227.475 0.209393 227.899 0.306538 228.315C0.457007 228.995 0.642363 229.667 0.86188 230.328C1.02401 230.807 1.22052 231.274 1.44989 231.725C1.76616 232.369 2.11506 232.998 2.49524 233.608C3.19732 234.771 4.01836 235.859 4.94528 236.855C5.94737 237.911 7.04043 238.878 8.21199 239.745C9.496 240.718 10.8498 241.597 12.2627 242.375L12.7854 242.634C14.0594 243.284 15.6274 243.998 16.8688 244.485C18.5385 245.17 20.2518 245.745 21.9975 246.206C23.5656 246.628 25.6563 247.115 27.257 247.375L30.001 247.765C30.9157 247.894 31.8304 247.992 32.745 248.057H35.5218H41.1078C42.0393 248.093 42.9716 248.017 43.8846 247.83C44.7822 247.675 45.6871 247.567 46.5959 247.505L49.34 247.05L51.9533 246.466C52.77 246.271 53.848 245.979 54.632 245.719L57.1148 244.907L59.6955 243.868C60.3815 243.576 61.2962 243.154 61.9495 242.797H62.2762L64.0402 241.79C64.7589 241.368 65.6736 240.751 66.3269 240.297C67.0406 239.803 67.7275 239.272 68.3849 238.706C69.0481 238.133 69.6806 237.526 70.2796 236.887C70.9983 236.076 71.8803 234.939 72.501 234.062C72.9331 233.399 73.3153 232.704 73.6443 231.984C74.2243 230.789 74.6417 229.523 74.8857 228.218C74.8592 227.779 74.9146 227.338 75.049 226.919C75.1308 226.414 75.1308 225.899 75.049 225.393V225.198C74.8526 224.54 74.7106 223.867 74.6244 223.185Z" fill="#426A32"/>
<path d="M74.8857 140.907C74.8857 146.265 71.4229 151.622 64.4648 155.778C51.79 163.376 31.7976 164.415 16.9668 158.831C15.1238 158.124 13.3335 157.288 11.6093 156.33C9.97195 155.399 8.42937 154.311 7.00326 153.083C4.97979 151.672 3.30512 149.822 2.10549 147.673C0.905849 145.525 0.212541 143.134 0.0778198 140.68V135.972C0.17146 134.545 0.345962 133.125 0.600495 131.718L1.02517 129.413C1.51518 127.075 2.10318 125.062 2.10318 125.062C2.33186 124.38 2.59319 123.471 2.82186 122.822C3.24654 121.62 3.83454 120.029 4.32455 118.861C4.58589 118.211 4.9779 117.334 5.30457 116.718C5.41127 116.521 5.49878 116.314 5.56591 116.101L6.28458 114.575C6.28458 114.315 6.57859 114.023 6.77459 113.73L7.32993 112.789C7.68927 112.139 8.04861 111.49 8.37528 110.97L9.02863 109.964L9.6493 109.12C10.074 108.503 10.6293 107.723 11.0867 107.139L13.7 103.892C14.19 103.34 14.9087 102.626 15.4314 102.106C15.8667 101.619 16.3361 101.164 16.8361 100.743C15.3185 101.885 14.191 103.463 13.6066 105.264C13.0222 107.064 13.0092 109 13.5694 110.808C13.9215 111.715 14.3822 112.576 14.9414 113.373C15.3353 113.954 15.7957 114.488 16.3134 114.964C16.5609 115.248 16.8343 115.509 17.1301 115.743C17.2135 115.866 17.3256 115.966 17.4568 116.036L18.6654 116.945L19.3515 117.367C19.8088 117.659 20.2661 117.951 20.7561 118.211C21.3893 118.575 22.0438 118.9 22.7162 119.185C23.1487 119.392 23.5965 119.566 24.0555 119.705C24.6415 119.955 25.2414 120.172 25.8522 120.354C26.6036 120.581 27.3549 120.809 28.1389 120.971L28.8903 121.166C29.7396 121.361 30.6216 121.491 31.5036 121.62C32.1722 121.746 32.8492 121.822 33.529 121.848C34.0403 121.88 34.5531 121.88 35.0644 121.848C36.7289 121.945 38.3979 121.945 40.0624 121.848H41.1405L43.1658 121.62H43.5578C44.4216 121.564 45.2762 121.411 46.1059 121.166H46.3345L48.7519 120.614C49.551 120.376 50.3362 120.094 51.104 119.77L52.3126 119.25C53.064 118.893 53.8153 118.503 54.534 118.081C57.4402 116.521 59.6712 113.957 60.8061 110.873C61.0019 110.316 61.1334 109.739 61.1981 109.152C61.2634 108.58 61.2634 108.003 61.1981 107.431C61.2308 107.151 61.2308 106.868 61.1981 106.587C61.1371 106.312 61.0608 106.041 60.9694 105.775L60.6754 104.964C60.5782 104.678 60.4466 104.406 60.2834 104.152C60.1507 103.871 59.9979 103.599 59.8261 103.34L59.2707 102.561L58.6174 101.782C58.9114 102.041 59.2054 102.366 59.4994 102.658C59.7934 102.95 60.6428 103.86 61.1328 104.412C61.6228 104.964 62.9621 106.587 63.7135 107.659C64.4648 108.73 64.6935 108.99 65.0855 109.574L65.2815 109.866C66.2289 111.263 67.1762 112.821 67.4375 113.341C67.5118 113.51 67.5991 113.672 67.6989 113.828L68.4829 115.321L69.0056 116.393C69.4302 117.302 69.8876 118.309 70.2469 119.153C70.6063 119.997 70.8676 120.646 71.0963 121.328C71.3249 122.01 71.6516 122.854 71.8476 123.504C72.2396 124.738 72.697 126.393 73.0236 127.627C73.187 128.309 73.383 129.218 73.5136 129.9C73.6443 130.582 73.8076 131.524 73.9056 132.206C74.1016 133.472 74.2976 135.193 74.3956 136.491V139.738C74.3956 140.29 74.8857 140.518 74.8857 140.907Z" fill="#619644"/>
<path d="M59.3035 152.142C58.9441 150.843 57.8335 149.284 54.2727 150.161C50.6992 151.177 47.0336 151.84 43.3292 152.142C39.6342 152.467 35.9175 152.467 32.2224 152.142H31.471L30.1644 151.979L27.4856 151.622L26.4403 151.427H26.081C25.7801 151.421 25.4823 151.366 25.1989 151.265L24.0883 151.038L20.8215 150.194C19.7109 149.901 18.6328 149.544 17.5548 149.155H17.0648C15.1676 148.426 13.3229 147.569 11.5441 146.59C9.95526 145.712 8.43715 144.713 7.00333 143.602C5.1927 142.163 3.61693 140.455 2.33193 138.537C1.74392 137.628 1.74392 137.628 1.09057 137.628C0.775198 138.411 0.641216 139.254 0.698567 140.096V207.73C0.506216 210.591 1.05743 213.453 2.29926 216.042C3.39113 217.756 4.7344 219.3 6.28465 220.62C6.56585 220.906 6.87194 221.167 7.19934 221.399C8.513 222.434 9.91171 223.357 11.3807 224.159C13.2279 225.169 15.1499 226.038 17.1302 226.757C19.2659 227.538 21.4478 228.189 23.6636 228.705C33.7122 230.911 44.15 230.655 54.0767 227.958C55.554 227.517 56.8626 226.642 57.8304 225.449C58.7982 224.255 59.3801 222.798 59.4995 221.269V215.457L59.6955 153.765C59.6504 153.207 59.5182 152.659 59.3035 152.142Z" fill="#DED9CC"/>
<path d="M19.7111 87.0729L19.3841 87.398H19.3514L19.7111 87.0729Z" fill="#E9BBA8"/>
<path d="M69.4629 116.328C67.5628 118.69 65.2501 120.691 62.6355 122.237C59.8652 123.839 56.916 125.114 53.848 126.036C51.398 122.465 54.5341 116.295 52.1493 111.717C50.7447 109.022 45.3872 107.561 43.8192 105.223C46.9783 104.621 50.0214 103.525 52.8354 101.976C55.5665 100.536 57.6194 98.0877 58.5521 95.1578C60.6105 100.175 63.0117 105.046 65.7389 109.737C66.6862 111.133 67.6336 112.691 67.8949 113.211C67.9691 113.38 68.0565 113.543 68.1563 113.698L68.9403 115.192L69.4629 116.328Z" fill="#70AD4F"/>
<path opacity="0.4" d="M31.471 54.1813C31.471 58.6621 31.471 63.2078 31.3077 67.786C31.2416 70.1059 30.8794 72.408 30.2297 74.6371C29.7053 76.7356 28.8332 78.7327 27.6489 80.5465C27.6489 80.8063 27.2569 81.0661 27.0283 80.9687C26.7996 80.8712 26.6363 80.8063 26.5709 80.2868C26.439 79.9082 26.439 79.4965 26.5709 79.1179C27.7085 75.3293 28.2052 71.3792 28.041 67.4289V28.4655C29.0075 29.2514 30.1163 29.8466 31.3077 30.2188C31.471 35.8685 31.471 52.428 31.471 54.1813Z" fill="white"/>
<path d="M50.8426 8.07458V24.634C50.737 25.7112 50.3538 26.7432 49.7301 27.6304C49.1064 28.5177 48.2633 29.2302 47.2819 29.6993C44.847 30.9641 42.1817 31.7307 39.4435 31.9538C36.7053 32.1768 33.95 31.8519 31.3403 30.9981L30.7197 30.8032L29.8703 30.4785L28.727 29.9266L28.1716 29.6993C27.9085 29.5449 27.6574 29.3713 27.4203 29.1798L27.1263 28.9525C26.4076 28.4469 25.8178 27.7814 25.4038 27.0091C24.9897 26.2368 24.763 25.379 24.7416 24.5042V7.97717C24.7852 8.82924 25.0224 9.66042 25.4355 10.4083C25.8485 11.1563 26.4265 11.8015 27.1263 12.2956L27.4203 12.5229L28.1716 13.0749L28.7596 13.4645C29.1136 13.6702 29.4853 13.844 29.8703 13.984C30.1382 14.1362 30.4233 14.2561 30.7197 14.3412L31.3403 14.5685C33.9553 15.4231 36.7161 15.7485 39.4597 15.5255C42.2033 15.3024 44.8741 14.5354 47.3146 13.2697C48.3097 12.7878 49.1597 12.054 49.779 11.1421C50.3984 10.2301 50.7652 9.17215 50.8426 8.07458Z" fill="#333333"/>
<path opacity="0.4" d="M30.6544 12.4255V30.8682L29.805 30.5435L28.6617 29.9915L28.1063 29.6993C27.8432 29.5449 27.5921 29.3713 27.355 29.1798V10.4124C27.7601 10.7517 28.1855 11.0661 28.629 11.354C28.856 11.5243 29.0964 11.6763 29.3477 11.8086C29.767 12.0467 30.2038 12.2529 30.6544 12.4255Z" fill="white"/>
<path d="M50.8099 8.07455V8.78888C50.771 9.00889 50.7164 9.2259 50.6466 9.43827C50.5828 9.68889 50.4838 9.92935 50.3526 10.1526L49.9606 10.802C49.8192 11.0441 49.6552 11.2724 49.4706 11.4838C49.2913 11.6946 49.0946 11.8901 48.8826 12.0683C48.655 12.2905 48.403 12.4866 48.1312 12.6527L47.8372 12.88L47.3799 13.1723C45.6853 14.1738 43.8097 14.8357 41.8591 15.1204L40.6505 15.3152C39.7369 15.3802 38.8199 15.3802 37.9064 15.3152H35.2277C34.3578 15.2405 33.4951 15.0994 32.647 14.8931L31.569 14.6009H31.1116C30.5323 14.4074 29.965 14.1797 29.4129 13.9191L28.5963 13.4645C28.28 13.2997 27.9746 13.1154 27.6816 12.9125L27.3549 12.6852H27.1589C26.8976 12.5184 26.6565 12.3223 26.4402 12.1008C25.8258 11.5714 25.3162 10.9327 24.9375 10.2175V9.37333V9.04863C24.8429 7.99046 25.0539 6.9274 25.5457 5.9842C26.0375 5.04101 26.7898 4.25681 27.7143 3.72363C27.9703 3.48774 28.2432 3.2707 28.5309 3.07424L29.4129 2.5872C29.8329 2.35954 30.2697 2.16415 30.7196 2.00275C34.9196 0.486277 39.4963 0.338434 43.7865 1.58065C44.28 1.68278 44.7617 1.8351 45.2239 2.03522C45.6738 2.19662 46.1106 2.39201 46.5305 2.61967L47.0532 2.87943L47.9679 3.43141C48.863 3.94733 49.6134 4.67859 50.1499 5.55799C50.6865 6.4374 50.9921 7.43674 51.0386 8.46418L50.8099 8.07455Z" fill="#333333"/>
<path d="M56.494 119.38C56.8044 119.872 57.0135 120.419 57.1092 120.992C57.205 121.564 57.1854 122.15 57.0517 122.714C56.918 123.279 56.6728 123.812 56.3303 124.282C55.9879 124.752 55.5549 125.15 55.0567 125.452C54.7761 125.619 54.4809 125.76 54.1747 125.874C40.7495 129.964 26.2597 128.802 13.6674 122.627C10.603 121.038 7.90945 118.825 5.7619 116.133L6.54591 114.607C6.54591 114.347 6.83992 114.055 7.03592 113.763L7.59126 112.821C7.9506 112.172 8.30994 111.522 8.63661 111.003L9.28996 109.996C12.1303 105.146 14.6193 100.1 16.7381 94.8981C17.1735 96.531 17.9677 98.0477 19.0635 99.339C20.1593 100.63 21.5295 101.664 23.0755 102.366C29.347 105.478 36.4594 106.503 43.3618 105.288C44.7888 105.003 46.2709 105.199 47.5729 105.846C48.8749 106.493 49.9222 107.554 50.5486 108.86C51.0386 109.834 51.5286 110.841 52.084 111.847C53.554 114.445 55.024 117.01 56.494 119.38Z" fill="#DED9CC"/>
<path d="M48.4252 151.59V167.273C48.4252 167.968 48.2875 168.656 48.0199 169.298C47.7523 169.94 47.3601 170.523 46.8656 171.015C46.3712 171.506 45.7842 171.896 45.1382 172.162C44.4921 172.428 43.7997 172.565 43.1005 172.565C42.1011 172.557 41.1457 172.156 40.4421 171.45C39.7385 170.745 39.3437 169.792 39.3438 168.799V152.402C40.8175 152.44 42.292 152.364 43.7538 152.174C45.2938 151.862 46.8554 151.666 48.4252 151.59Z" fill="#DB9F9F"/>
<path d="M29.511 165.876V215.879C27.3777 215.641 25.2612 215.272 23.1736 214.775C20.9578 214.259 18.7759 213.609 16.6401 212.827C14.6599 212.108 12.7378 211.24 10.8907 210.23C10.2047 209.84 9.51869 209.45 8.89801 209.028V158.96C9.58402 159.415 10.3354 159.87 11.1194 160.292C12.8991 161.26 14.7437 162.107 16.6401 162.824H16.9668C18.0448 163.214 19.1228 163.571 20.2335 163.863L23.5002 164.707L24.6109 164.935H25.8849L26.9303 165.13L29.511 165.876Z" fill="#9C9990"/>
<g opacity="0.7">
<path opacity="0.4" d="M17.0974 135.355V171.688V233.088C17.0974 235.783 14.9087 236.855 12.328 235.491C10.8066 234.785 9.51582 233.667 8.60312 232.266C7.69042 230.865 7.19261 229.237 7.16656 227.568V204.19V192.047V161.298C7.16656 152.466 7.16657 143.7 7.62391 134.771C7.88397 130.172 8.99123 125.659 10.8906 121.458C12.6503 117.08 15.3479 113.136 18.7961 109.899C19.026 109.611 19.3193 109.379 19.6534 109.222C19.9875 109.064 20.3536 108.985 20.7234 108.99C21.3441 108.99 21.8341 109.379 22.1935 110.321C22.3224 110.727 22.342 111.16 22.2503 111.575C22.1586 111.991 21.9588 112.376 21.6708 112.691C18.3711 119.782 16.8041 127.548 17.0974 135.355Z" fill="white"/>
</g>
</svg>
