<svg width="75" height="247" viewBox="0 0 75 247" fill="none" xmlns="http://www.w3.org/2000/svg">
<g clip-path="url(#clip0_2_11676)">
<path d="M27.0311 56.6165C21.4771 60.0386 21.6697 65.4489 27.4485 68.708C30.6505 70.3261 34.1842 71.152 37.7608 71.118C41.3375 71.084 44.8555 70.1911 48.0271 68.5124C53.5812 65.2532 53.0032 59.7779 47.1924 56.5188C44.0716 54.8886 40.6096 54.0463 37.0999 54.0634C33.5902 54.0804 30.1365 54.9562 27.0311 56.6165Z" fill="#DEBC6D"/>
<path d="M73.5179 221.888C72.6511 216.999 68.9271 212.11 62.3779 208.525C47.7063 200.214 24.3986 200.442 10.3049 209.047C10.3049 209.209 9.85553 212.306 18.4273 217.097L36.8551 227.526L18.4273 217.097C9.85553 212.241 10.2728 209.209 10.3049 209.047C7.84847 210.319 5.68391 212.103 3.95245 214.282C2.22099 216.461 0.961524 218.985 0.256286 221.692C0.146552 222.338 0.0821895 222.992 0.0636692 223.647C0.0155608 224.331 0.0155608 225.017 0.0636692 225.701C0.0963833 226.139 0.160757 226.575 0.256286 227.004C0.39991 227.691 0.593031 228.367 0.834137 229.025C0.982533 229.505 1.16507 229.973 1.38005 230.427C1.69087 231.074 2.03358 231.705 2.40721 232.317C3.10364 233.48 3.91005 234.572 4.81502 235.576C5.80249 236.633 6.87648 237.604 8.02543 238.477C9.28833 239.443 10.619 240.314 12.0065 241.084C13.4603 241.893 14.9612 242.611 16.501 243.235C18.1509 243.898 19.8333 244.474 21.5413 244.962C23.0823 245.353 25.137 245.842 26.7101 246.136L29.4069 246.527L32.1035 246.82C32.9061 246.82 33.9978 246.82 34.8325 246.82C35.6672 246.82 36.7266 246.82 37.5613 246.82H40.2902C41.0928 246.82 42.1843 246.82 43.019 246.592C43.8537 246.364 44.8811 246.364 45.6837 246.266L48.3803 245.777C49.1508 245.777 50.1781 245.419 50.9486 245.223L53.6133 244.473L56.0211 243.659L58.5575 242.616C59.2317 242.322 60.1306 241.899 60.7727 241.54L62.8915 240.367C63.5657 239.943 64.4646 239.324 65.1067 238.868C65.7487 238.411 66.5192 237.76 67.0971 237.271C67.7489 236.696 68.3705 236.087 68.9592 235.446C69.6655 234.631 70.5323 233.49 71.1423 232.61C71.5786 231.951 71.9546 231.253 72.2658 230.524C72.8167 229.342 73.2159 228.094 73.4537 226.809C73.4537 226.418 73.4538 225.896 73.6143 225.505C73.7749 225.114 73.6143 224.397 73.6143 223.941C73.6298 223.255 73.5975 222.569 73.5179 221.888Z" fill="#C2A55F"/>
<path d="M74.0956 105.895C74.0956 137.997 73.8389 192.132 73.8068 224.234C73.8068 218.498 70.0184 212.795 62.474 208.558C47.7703 200.214 24.4627 200.475 10.369 209.047C3.56296 213.251 0.127808 218.596 0.127808 223.974C0.127808 191.871 0.320354 137.802 0.44877 105.699C0.44877 100.322 3.85181 94.9115 10.69 90.7398C24.7837 82.1357 48.0914 81.8749 62.7308 90.2183C70.3074 94.4552 74.0956 100.191 74.0956 105.895Z" fill="#D4B468"/>
<path d="M57.4657 65.8073C57.2089 65.5792 56.9199 65.2532 56.6631 65.0577L56.2779 64.6666L55.4753 63.9171L54.7048 63.1674L54.2874 62.8089L53.5169 62.0593L52.7143 61.3097L52.3291 60.9186L51.5265 60.169L50.7558 59.4194L50.3387 59.0609L49.568 58.3113C52.9389 61.5705 52.3612 65.7747 47.7061 68.6101C44.5721 70.2611 41.0989 71.1393 37.5682 71.1733C34.0374 71.2072 30.5485 70.3962 27.3841 68.8058C22.3759 65.9703 21.6054 61.5378 25.1368 58.2461L17.2072 65.6769C11.3642 71.1523 12.6483 78.4528 20.8991 83.146C26.1174 85.7749 31.8746 87.1128 37.6998 87.0505C43.5251 86.9882 49.2531 85.5274 54.4158 82.7874C62.1208 77.9965 63.0839 70.9894 57.4657 65.8073Z" fill="#DEC281"/>
<path d="M74.0957 105.895C74.0957 105.243 74.0957 104.363 74.0957 103.711C74.0957 103.059 74.0957 102.082 74.0957 101.365C74.0957 100.061 73.8069 98.3662 73.6143 97.0625C73.6143 96.3781 73.3573 95.4656 73.2289 94.7486C73.1004 94.0316 72.9079 93.1516 72.7474 92.4671C72.4264 91.2287 71.9768 89.5666 71.6236 88.3607C71.3989 87.6763 71.11 86.7962 70.8532 86.1444C70.5964 85.4926 70.2753 84.6126 70.0184 83.9608C69.5369 82.7875 68.8307 81.2558 68.2849 80.1151L67.1935 78.0618C66.9045 77.5077 65.8771 75.7478 64.8819 74.2812L63.5335 72.3257C62.7952 71.3805 61.7677 70.0769 60.9972 69.0665C60.2267 68.0562 59.8736 67.828 59.392 67.3066C58.9104 66.7851 58.2042 66.1007 57.6906 65.6118C63.2767 70.8916 62.3136 77.8988 54.4802 82.5919C49.3175 85.3319 43.5895 86.7927 37.7642 86.855C31.939 86.9174 26.1818 85.5794 20.9634 82.9505C12.7127 78.2573 11.3321 70.9568 17.2714 65.4814C16.7733 65.9078 16.3015 66.365 15.8588 66.8503C15.3451 67.3718 14.6389 68.0888 14.1574 68.6428L11.5891 71.902C11.1396 72.456 10.5939 73.2708 10.1765 73.8575C9.75915 74.4441 9.24541 75.2588 8.89226 75.8455C8.25018 76.921 7.41539 78.3877 6.80542 79.4958C6.19544 80.6039 6.06719 80.9624 5.77826 81.6142C5.48932 82.2661 5.07181 83.1135 4.81498 83.7653C4.33341 84.9386 3.75567 86.5356 3.33831 87.7414C3.11358 88.4259 2.85668 89.3058 2.66406 89.9903C2.231 91.4248 1.87725 92.8828 1.60456 94.3575C1.44404 95.0419 1.28351 95.987 1.18719 96.6715C0.99457 97.9425 0.769896 99.6699 0.641479 100.941C0.641479 101.658 0.641479 102.603 0.641479 103.32C0.641479 104.037 0.641479 104.95 0.641479 105.667C0.641479 111.37 4.42986 117.074 11.9743 121.376C26.6459 129.687 49.9534 129.426 64.0471 120.822C70.6606 116.65 74.0636 111.435 74.0957 105.895Z" fill="#DEBC6D"/>
<path d="M51.7511 62.5483C50.217 60.8971 49.3469 58.7231 49.3114 56.4537C49.236 57.4718 48.9002 58.4522 48.3371 59.2982C47.7741 60.1441 47.0033 60.8263 46.1009 61.2771C43.5005 62.6584 40.6154 63.3962 37.6807 63.4302C34.746 63.4642 31.8449 62.7935 29.2141 61.4728C28.208 61.0409 27.3361 60.3399 26.6915 59.4445C26.047 58.5491 25.6539 57.4928 25.5542 56.3884C25.5051 58.6516 24.6232 60.8143 23.0822 62.4505C23.2056 63.7831 23.6828 65.0568 24.463 66.1358C25.2432 67.2148 26.2972 68.0588 27.5125 68.5777C30.6768 70.1681 34.1658 70.9791 37.6965 70.9452C41.2273 70.9112 44.7005 70.0331 47.8345 68.3821C48.9276 67.8354 49.8628 67.0108 50.5492 65.9885C51.2355 64.9662 51.6495 63.7811 51.7511 62.5483Z" fill="#DEBC6D"/>
<path d="M49.3115 56.584V32.3359C49.2261 33.3554 48.8867 34.3361 48.325 35.1856C47.7634 36.0352 46.9981 36.7256 46.101 37.192C43.4981 38.5683 40.6115 39.3004 37.6768 39.3287C34.7422 39.357 31.8425 38.6807 29.2142 37.355C28.2081 36.9231 27.3361 36.2221 26.6916 35.3267C26.0471 34.4313 25.654 33.3751 25.5543 32.2708V56.5187C25.654 57.6231 26.0471 58.6793 26.6916 59.5747C27.3361 60.4701 28.2081 61.1711 29.2142 61.603C31.845 62.9237 34.7461 63.5945 37.6808 63.5605C40.6154 63.5265 43.5006 62.7887 46.101 61.4074C47.0033 60.9565 47.7741 60.2744 48.3372 59.4285C48.9002 58.5825 49.236 57.6021 49.3115 56.584Z" fill="#D4B468"/>
<path d="M45.8441 37.3225L47.1284 36.5729C44.1393 38.0953 40.8413 38.888 37.4971 38.888C34.153 38.888 30.855 38.0953 27.8659 36.5729H27.6731L28.9573 37.3225H29.1178C31.7163 38.6344 34.579 39.3171 37.4811 39.3171C40.3832 39.3171 43.2457 38.6344 45.8441 37.3225Z" fill="#2E1B18"/>
<path d="M27.8978 9.75009C22.8253 12.8463 23.018 17.7675 28.283 20.766C31.2015 22.2381 34.422 22.9878 37.6807 22.9538C40.9394 22.9199 44.1439 22.1031 47.0319 20.5704C52.1044 17.3113 51.9439 12.5204 46.6467 9.55455C43.7304 8.07472 40.5091 7.32061 37.249 7.35462C33.9889 7.38862 30.7835 8.20975 27.8978 9.75009ZM31.1082 11.6078C33.0076 10.6261 35.1089 10.1145 37.2402 10.1145C39.3716 10.1145 41.4726 10.6261 43.372 11.6078C46.8071 13.5633 46.9356 16.7898 43.6289 18.8105C41.7295 19.7921 39.6285 20.3039 37.4971 20.3039C35.3657 20.3039 33.2645 19.7921 31.3651 18.8105C27.93 16.855 27.8015 13.6284 31.1082 11.6078Z" fill="#DEC281"/>
<path d="M46.1329 5.9043V15.1929C46.0705 15.9382 45.8149 16.6534 45.392 17.2659C44.9691 17.8785 44.3939 18.3664 43.7251 18.6801C41.8257 19.6618 39.7246 20.1735 37.5933 20.1735C35.4619 20.1735 33.3608 19.6618 31.4614 18.6801C30.7317 18.3668 30.0988 17.8592 29.6297 17.211C29.1607 16.5627 28.873 15.7979 28.7968 14.9973V5.83915C28.8081 5.11521 29.0565 4.41573 29.5029 3.85107C30.0281 4.55234 30.6962 5.13036 31.4614 5.54579C33.3552 6.52715 35.451 7.0388 37.5772 7.0388C39.7034 7.0388 41.7994 6.52715 43.6931 5.54579C44.3721 5.16673 44.9632 4.64441 45.4267 4.01399C45.866 4.54481 46.1149 5.21122 46.1329 5.9043Z" fill="#D4B078"/>
<path opacity="0.4" d="M17.143 100.224V159.312V198.422C17.143 203.571 17.143 208.753 17.143 213.968C17.143 219.183 17.143 225.114 17.143 230.752C17.143 233.425 14.992 234.501 12.4557 233.164C10.9627 232.444 9.69713 231.315 8.80111 229.904C7.90509 228.494 7.41421 226.857 7.38342 225.179C7.38342 223.615 7.38342 221.92 7.38342 220.421V201.746C7.38342 192.751 7.38342 135.357 7.38342 126.395C7.38342 117.432 7.38327 108.698 7.83273 99.735C8.11216 95.1226 9.1993 90.5976 11.0431 86.3725C12.7819 81.9753 15.4441 78.0158 18.8444 74.77C19.0729 74.492 19.3573 74.2668 19.6784 74.1095C19.9995 73.9521 20.35 73.8662 20.7065 73.8574C21.3165 73.8574 21.8302 74.2486 22.1512 75.2263C22.2689 75.6295 22.2834 76.0565 22.1936 76.4671C22.1037 76.8776 21.9125 77.2581 21.6377 77.5728C18.4051 84.6591 16.8652 92.4197 17.143 100.224Z" fill="white"/>
<path opacity="0.4" d="M32.296 46.9695C32.296 49.8049 32.296 52.7382 32.296 55.6388C32.2183 57.16 31.859 58.6526 31.2367 60.0387C30.6641 61.4572 29.7992 62.7351 28.7004 63.7867C28.6258 63.8776 28.5326 63.9509 28.4272 64.0016C28.3219 64.0522 28.2069 64.079 28.0904 64.08C27.9768 64.0717 27.8706 64.02 27.7931 63.9354C27.7157 63.8507 27.6727 63.7392 27.673 63.6236C27.4804 63.2977 27.673 63.0696 27.673 62.9066C28.7585 60.5795 29.2551 58.0143 29.1177 55.4433V37.4202C30.1219 37.9632 31.2061 38.3374 32.3281 38.5283C32.296 42.0808 32.296 45.9591 32.296 46.9695Z" fill="white"/>
<path d="M50.724 15.2254V32.3359C50.6234 33.4686 50.2326 34.5549 49.5906 35.4868C48.9485 36.4187 48.0776 37.1639 47.064 37.6483C44.6118 38.9466 41.9295 39.7363 39.1736 39.9713C36.4177 40.2063 33.6432 39.882 31.012 39.0172C30.0877 38.7305 29.1947 38.3482 28.3473 37.8765C28.1574 37.7822 27.975 37.6733 27.8016 37.5506C26.8136 37.0418 25.9721 36.2822 25.3589 35.3456C24.7457 34.409 24.3817 33.3273 24.3021 32.2056V15.0951C24.3923 16.2054 24.7613 17.2737 25.374 18.198C25.9866 19.1223 26.8224 19.8718 27.8016 20.3749C27.9876 20.5312 28.1926 20.6626 28.4115 20.766C29.2343 21.2424 30.1064 21.625 31.012 21.9067C33.6417 22.7806 36.4175 23.1097 39.1748 22.8746C41.9321 22.6395 44.6148 21.8449 47.064 20.5379C48.0776 20.0534 48.9485 19.3083 49.5906 18.3763C50.2326 17.4444 50.6234 16.3581 50.724 15.2254Z" fill="#DEBC6D"/>
<path opacity="0.4" d="M30.8835 21.9067V39.0172C29.9592 38.7305 29.0664 38.3482 28.219 37.8765C28.0291 37.7822 27.8465 37.6733 27.6731 37.5506V26.4369C27.6731 24.4162 27.6731 22.3955 27.6731 20.3749C27.8591 20.5312 28.0641 20.6626 28.2831 20.766C29.1058 21.2424 29.9779 21.625 30.8835 21.9067Z" fill="white"/>
<path d="M0.866078 196.499V189.981V131.055C0.792593 130.189 0.924682 129.317 1.25131 128.513C1.89339 128.513 1.89341 128.513 2.47128 129.426C4.78772 132.844 7.89689 135.631 11.5247 137.541C24.5536 144.076 39.5137 145.447 53.4848 141.387C58.2041 140.214 58.5572 143.473 58.6535 144.646V210.057V211.067V212.469C58.5682 214.013 58.0262 215.495 57.0985 216.722C56.1707 217.949 54.9001 218.863 53.4526 219.345C39.4801 223.39 24.5257 222.019 11.4925 215.5C7.8742 213.588 4.77573 210.801 2.47128 207.384C1.21286 204.787 0.658799 201.896 0.866078 199.008V196.499Z" fill="#FFEFD6"/>
<path d="M17.3999 140.246C21.8716 141.95 26.5458 143.046 31.3008 143.505V159.214C26.5594 158.736 21.8984 157.64 17.432 155.955V140.279L17.3999 140.246Z" fill="#E8C997"/>
<path d="M46.1329 5.7414V15.1603C46.0664 15.9085 45.8096 16.6264 45.3875 17.2434C44.9654 17.8605 44.3925 18.3556 43.7251 18.6801L43.3398 18.8757V5.83917L43.7572 5.57843C44.4211 5.17784 45.0085 4.65892 45.491 4.04663C45.85 4.54332 46.0715 5.12846 46.1329 5.7414Z" fill="#C4A46F"/>
<path d="M46.133 5.90435C46.05 6.63924 45.7861 7.34106 45.3652 7.94489C44.9444 8.54873 44.3802 9.03508 43.7251 9.35903C41.8337 10.3481 39.737 10.8642 37.6094 10.8642C35.4818 10.8642 33.3849 10.3481 31.4935 9.35903C30.7642 9.05428 30.1307 8.5533 29.6612 7.91008C29.1916 7.26686 28.904 6.50578 28.829 5.70881C28.8403 4.98487 29.0888 4.28538 29.5352 3.72073C29.9864 3.0911 30.5671 2.56845 31.2368 2.18893C33.1266 1.19199 35.22 0.658023 37.3496 0.629727C39.4791 0.60143 41.5857 1.07958 43.5006 2.02596C44.2739 2.44363 44.9435 3.03434 45.4589 3.75335C45.9451 4.35712 46.1861 5.12636 46.133 5.90435Z" fill="#FFD491"/>
</g>
<defs>
<clipPath id="clip0_2_11676">
<rect width="74" height="246" fill="white" transform="translate(0.0957031 0.885254)"/>
</clipPath>
</defs>
</svg>
