<svg width="76" height="243" viewBox="0 0 76 243" fill="none" xmlns="http://www.w3.org/2000/svg">
<g clip-path="url(#clip0_2_11714)">
<path d="M50.0632 27.4772V39.3269V28.5427C50.1227 28.19 50.1227 27.8299 50.0632 27.4772Z" fill="#EAA98D"/>
<path d="M46.4499 32.3849L47.7847 31.6423C44.7524 33.1457 41.409 33.9283 38.019 33.9283C34.6291 33.9283 31.2857 33.1457 28.2534 31.6423L29.5552 32.4172C32.1774 33.7235 35.072 34.401 38.0063 34.3954C40.9406 34.3898 43.8328 33.7012 46.4499 32.3849Z" fill="#2E1B18"/>
<path d="M53.644 9.10526V9.46044C53.6756 9.62035 53.6756 9.78487 53.644 9.94479C53.6098 10.2203 53.5444 10.4911 53.4489 10.752C53.3573 11.0427 53.2374 11.3238 53.0908 11.5915C52.9636 11.8633 52.811 12.1227 52.6351 12.3664C52.461 12.65 52.2649 12.9199 52.0489 13.1736C51.8354 13.434 51.5955 13.6721 51.3329 13.8839C51.0546 14.1381 50.7611 14.3753 50.4539 14.5943L50.0959 14.8526L49.5424 15.2078C47.5404 16.3913 45.3319 17.1909 43.032 17.5648L41.5673 17.7908C40.4864 17.909 39.3994 17.9629 38.3121 17.9522H36.3916C36.0669 17.9839 35.7396 17.9839 35.4149 17.9522C34.3194 17.8527 33.2318 17.6801 32.1597 17.4356L30.8575 17.0804L30.3044 16.919C29.6007 16.7033 28.915 16.4334 28.2536 16.1118C27.9146 15.966 27.5878 15.7932 27.2769 15.5952C26.9033 15.4063 26.5444 15.1905 26.2028 14.9494L25.8122 14.6911L25.5515 14.4974C25.2549 14.2782 24.9722 14.041 24.7051 13.7871C23.9419 13.1023 23.3322 12.2663 22.915 11.3331V10.8811V10.4937C22.8993 10.365 22.8993 10.2349 22.915 10.1062C22.7475 8.83069 22.9676 7.53454 23.5476 6.38401C24.1276 5.23349 25.0409 4.28101 26.1702 3.64862C26.4829 3.41494 26.8088 3.19929 27.1465 3.00282L28.1884 2.42166C28.6767 2.16336 29.23 1.93734 29.7509 1.71132C34.7773 -0.0736294 40.2409 -0.254279 45.376 1.1947C45.9709 1.32505 46.5491 1.51997 47.101 1.77591C47.6511 1.95667 48.1846 2.18347 48.696 2.45393L49.3147 2.77683L50.3888 3.42258C51.4706 4.0338 52.3766 4.9096 53.0205 5.96652C53.6644 7.02344 54.0247 8.22625 54.0672 9.46044C54.0672 9.46044 53.644 9.13755 53.644 9.10526Z" fill="#DEB147"/>
<path d="M72.5827 135.537C72.5827 145.534 72.5827 157.801 72.5827 170.834H2.18461C2.18461 157.74 2.18461 145.381 2.18461 135.322C2.16934 135.098 2.16934 134.872 2.18461 134.648C2.16974 134.556 2.16974 134.463 2.18461 134.372C2.18461 133.942 2.18461 133.482 2.18461 133.084C2.18461 132.685 2.18461 131.55 2.18461 130.876C2.18461 129.68 2.52151 128.054 2.67468 126.858L3.07295 124.681C3.53246 122.473 4.08394 120.572 4.08394 120.572C4.29838 119.928 4.54337 119.069 4.75781 118.456C5.15606 117.321 5.70755 115.819 6.16706 114.715C6.41214 114.101 6.77972 113.273 7.08606 112.691C7.18613 112.505 7.26825 112.31 7.33119 112.108L8.06639 110.667C8.06639 110.421 8.34218 110.145 8.52599 109.869L9.04672 108.98C9.59814 108.091 10.1496 107.232 10.6398 106.312C13.442 101.722 15.9094 96.9362 18.0226 91.9908C18.9417 89.7214 19.7995 87.3909 20.5653 85.0296C24.2574 73.8086 26.1294 62.0678 26.1102 50.2538V9.22218C26.4045 9.00023 26.7113 8.79541 27.0292 8.60881L28.0095 8.05684C28.469 7.81151 28.9898 7.59693 29.4799 7.38227C34.2103 5.68697 39.3518 5.5153 44.1845 6.8915C44.7443 7.0153 45.2888 7.20039 45.8082 7.44347C46.3259 7.61515 46.828 7.83066 47.3092 8.08753L47.8913 8.39412L48.9023 9.00749V50.1924C48.9023 51.5724 48.9023 52.9525 48.9023 54.3018V55.0378C49.3119 65.1606 51.1054 75.1796 54.2327 84.8149C55.0598 87.3602 55.9787 89.8747 56.9897 92.328C58.92 97.0662 61.1718 101.667 63.7293 106.097C64.4646 107.355 65.2304 108.612 65.9962 109.839L66.7316 111.249L67.2217 112.261C67.6199 113.12 68.0489 114.071 68.3858 114.868C68.7228 115.665 68.9679 116.279 69.1824 116.923C69.3968 117.567 69.7031 118.364 69.8869 118.977C70.2545 120.142 70.6833 121.707 70.9897 122.872C70.9897 123.516 71.3267 124.375 71.4493 125.019C71.5718 125.663 71.725 126.552 71.8169 127.196C72.0007 128.392 72.1846 130.017 72.2765 131.244C72.2765 131.888 72.2765 132.777 72.2765 133.452C72.2765 134.126 72.2765 134.065 72.2765 134.402C72.2765 134.74 72.5827 135.2 72.5827 135.537Z" fill="#DEB147"/>
<path d="M75.0946 139.914C75.0946 150.079 75.0946 162.552 75.0946 175.803C75.0946 190.49 75.0946 206.142 75.0946 220.641V220.828C75.0946 221.265 75.0946 221.857 75.0946 222.294C75.0946 222.73 75.0946 223.167 75.0946 223.541C74.8581 224.771 74.4531 225.967 73.8901 227.096C73.5622 227.787 73.1815 228.454 72.7509 229.091C72.1324 229.933 71.2537 231.024 70.5376 231.804C69.9406 232.417 69.3102 233 68.6493 233.55C67.9942 234.093 67.3097 234.604 66.5985 235.078C65.9475 235.514 65.0362 236.107 64.32 236.512L62.5621 237.479C62.1009 237.229 61.6225 237.011 61.13 236.824L59.9256 236.325C59.0141 235.951 58.0702 235.608 57.1261 235.296H56.8981C55.9484 234.958 54.9814 234.667 54.0009 234.423C53.2196 234.205 52.4384 233.986 51.6246 233.831C50.8108 233.675 49.4111 233.363 48.3694 233.176C47.3278 232.989 46.2861 232.864 45.1142 232.77H44.3004C43.6494 232.77 42.9658 232.615 42.3148 232.583H40.7198C38.8547 232.49 36.986 232.49 35.1209 232.583H33.6558C32.6142 232.583 31.5725 232.583 30.4006 232.864C29.2287 233.145 28.3826 233.113 27.4061 233.269H26.7222C25.6806 233.425 24.6389 233.644 23.467 233.862L21.3514 234.392C20.1145 234.704 18.8775 235.109 17.7056 235.514L16.3057 236.013C15.3943 236.367 14.5152 236.741 13.6688 237.136L13.1483 237.385L12.6273 237.136C11.2197 236.389 9.87069 235.545 8.59088 234.61C7.41902 233.783 6.32933 232.854 5.33567 231.835C4.41076 230.88 3.59251 229.835 2.89427 228.717C2.51542 228.131 2.16754 227.528 1.85238 226.908C1.63173 226.472 1.43634 226.025 1.26666 225.568C1.04792 224.933 0.863075 224.288 0.713136 223.635C0.616334 223.234 0.551252 222.828 0.51803 222.418V219.3C0.51803 205.144 0.51803 189.959 0.51803 175.647C0.51803 162.333 0.51803 149.768 0.51803 139.54C0.501802 139.312 0.501802 139.083 0.51803 138.854C0.502233 138.761 0.502233 138.667 0.51803 138.574C0.906614 136.043 1.88326 133.628 3.37627 131.507C4.86929 129.386 6.84066 127.613 9.14441 126.32C9.6978 125.946 10.2509 125.603 10.8694 125.26C13.3105 123.873 15.8961 122.734 18.5842 121.861C21.1186 121.016 23.7205 120.369 26.3642 119.928C34.0125 118.556 41.8603 118.556 49.5087 119.928C54.4602 120.782 59.2396 122.382 63.6691 124.667C70.798 128.471 74.6714 133.491 75.1271 138.574C75.0946 139.197 75.0946 139.54 75.0946 139.914Z" fill="#345327"/>
<path d="M74.7049 218.396C73.7935 213.521 70.05 208.71 63.3769 205.126C48.5006 196.893 24.8352 197.151 10.5123 205.675C8.02261 206.929 5.82806 208.69 4.07222 210.843C2.31639 212.996 1.03887 215.493 0.323486 218.17C0.341677 218.428 0.341677 218.687 0.323486 218.945C0.323486 219.43 0.323486 219.849 0.323486 220.14C0.323486 220.431 0.323486 221.496 0.323486 222.11C0.356708 222.534 0.422187 222.955 0.51899 223.369C0.668929 224.045 0.853377 224.713 1.07212 225.371C1.2418 225.844 1.43758 226.307 1.65823 226.759C1.97339 227.4 2.32088 228.025 2.69972 228.632C3.39797 229.789 4.21621 230.872 5.14113 231.861C6.13479 232.916 7.22448 233.878 8.39634 234.734C9.67615 235.702 11.0252 236.576 12.4328 237.35L12.9537 237.608C14.2232 238.254 15.7857 238.964 17.0227 239.448C18.6885 240.124 20.3957 240.696 22.1336 241.159C23.6961 241.579 25.7794 242.064 27.3745 242.322L30.1087 242.709C31.0144 242.854 31.927 242.951 32.843 243L35.6102 243.161H38.3771H41.1765C41.9903 243.161 43.097 243.161 43.9434 242.935C44.7897 242.709 45.8312 242.742 46.645 242.612C47.4588 242.483 48.5659 242.322 49.3797 242.16L51.9836 241.579C52.7974 241.386 53.8719 241.095 54.6531 240.837L57.1271 240.029L59.6985 238.996C60.382 238.706 61.2937 238.286 61.9448 237.931L62.2702 237.769L64.0281 236.768C64.7443 236.349 65.6556 235.735 66.3066 235.283C67.0178 234.792 67.7023 234.264 68.3574 233.701C69.0183 233.131 69.6483 232.528 70.2453 231.893C70.9614 231.086 71.8405 229.956 72.459 229.084C72.8896 228.424 73.2703 227.733 73.5983 227.017C74.1613 225.848 74.5662 224.611 74.8027 223.337C74.8027 222.949 74.8027 222.432 74.8027 222.045C74.8027 221.658 74.8027 220.979 74.8027 220.527V220.334C74.8678 219.494 74.77 218.784 74.7049 218.396Z" fill="#28401E"/>
<path d="M75.0954 136.449C75.0954 141.777 71.6451 147.104 64.7115 151.237C52.0813 158.793 32.1593 159.826 17.3807 154.272C15.4936 153.577 13.6651 152.735 11.9121 151.754C10.2869 150.879 8.74981 149.852 7.32218 148.687C5.28904 147.269 3.61015 145.41 2.41393 143.249C1.21772 141.089 0.535954 138.685 0.42115 136.223V135.513C0.405352 135.417 0.405352 135.319 0.42115 135.222C0.42115 134.77 0.42115 134.286 0.42115 133.866C0.42115 133.447 0.42115 132.252 0.42115 131.542C0.42115 130.282 0.779334 128.571 0.942094 127.312L1.36529 125.019C1.85357 122.695 2.43936 120.693 2.43936 120.693C2.66723 120.015 2.92755 119.111 3.15541 118.465C3.57859 117.27 4.1648 115.688 4.65308 114.526C4.9135 113.88 5.30388 113.008 5.6294 112.395C5.73573 112.199 5.82319 111.994 5.89007 111.781L6.67129 110.264C6.67129 110.005 6.96394 109.715 7.15926 109.424L7.71278 108.488C8.07086 107.842 8.42915 107.196 8.75467 106.68L9.40556 105.679L10.0239 104.839C10.447 104.226 11.0006 103.451 11.4564 102.87L14.0603 99.641C14.5486 99.0921 15.2648 98.3817 15.7856 97.8651C16.2251 97.3864 16.6927 96.9336 17.1856 96.509C15.6806 97.6507 14.5625 99.2206 13.9808 101.009C13.3992 102.798 13.3817 104.72 13.9303 106.518C14.2758 107.422 14.7349 108.279 15.2973 109.069C15.6968 109.642 16.1551 110.172 16.6646 110.651C16.9115 110.934 17.1839 111.193 17.4784 111.426C17.57 111.54 17.68 111.638 17.8039 111.717L19.0083 112.621L19.464 112.944C19.9198 113.234 20.3757 113.525 20.864 113.783C21.4949 114.145 22.147 114.468 22.817 114.752C23.248 114.957 23.6943 115.13 24.1517 115.268C24.7357 115.517 25.3332 115.733 25.9419 115.914C26.6906 116.14 27.4395 116.366 28.2208 116.528L28.9694 116.721C29.8157 116.915 30.6944 117.044 31.5733 117.173C32.2395 117.298 32.9141 117.374 33.5915 117.399C34.101 117.433 34.6124 117.433 35.1218 117.399C36.78 117.512 38.4437 117.512 40.1019 117.399H41.1764L43.1946 117.173H43.5852C44.4316 117.173 45.278 116.915 46.1244 116.721H46.3521L48.9238 116.011C49.7188 115.77 50.5009 115.49 51.2675 115.172L52.4719 114.655C53.2298 114.306 53.9689 113.918 54.6856 113.493C57.5477 111.99 59.7668 109.514 60.9354 106.518C61.1305 105.964 61.2615 105.39 61.326 104.807C61.391 104.238 61.391 103.664 61.326 103.096C61.3549 102.817 61.3549 102.535 61.326 102.256C61.2652 101.983 61.1893 101.714 61.0983 101.449C61.0151 101.175 60.9174 100.906 60.8054 100.642C60.7085 100.358 60.5774 100.087 60.4148 99.8347C60.2826 99.5552 60.1302 99.2854 59.959 99.0275L59.4055 98.2526L58.7546 97.4777C59.0636 97.7519 59.3567 98.043 59.6332 98.3495C60.1215 98.8338 60.7725 99.5441 61.2608 100.093C61.7491 100.642 63.0838 102.256 63.8325 103.322C64.5812 104.387 64.8092 104.646 65.1999 105.227L65.395 105.517C66.339 106.906 67.2831 108.456 67.5435 108.972C67.6175 109.14 67.7044 109.302 67.8038 109.457L68.585 110.942L69.106 112.007C69.5291 112.911 69.9849 113.912 70.343 114.752C70.701 115.591 70.9615 116.237 71.1893 116.915C71.4172 117.593 71.7427 118.433 71.938 119.078C72.3286 120.305 72.7843 121.952 73.1098 123.179C73.1098 123.857 73.468 124.761 73.5982 125.439C73.7284 126.117 73.8911 127.054 73.9888 127.732C74.1841 128.991 74.3795 130.702 74.4771 131.994C74.4771 132.672 74.4771 133.608 74.4771 134.318C74.4771 135.029 74.4771 134.964 74.4771 135.319C74.4771 135.674 75.0954 136.062 75.0954 136.449Z" fill="#497336"/>
<path d="M59.4379 147.621C59.0799 146.329 57.973 144.78 54.4248 145.651C50.8642 146.663 47.2115 147.323 43.5199 147.621C39.8379 147.944 36.1342 147.944 32.4521 147.621H31.7035L30.4013 147.46L27.7322 147.104L26.6904 146.911C26.5728 146.939 26.4499 146.939 26.3323 146.911C26.0325 146.904 25.7357 146.849 25.4534 146.749C25.4534 146.749 25.4536 146.749 25.2908 146.749L24.1842 146.523L20.929 145.684C19.8261 145.397 18.7395 145.052 17.6738 144.651H17.3479C15.4617 143.929 13.6244 143.087 11.8468 142.132C10.259 141.267 8.74561 140.273 7.32203 139.161C5.51523 137.721 3.9447 136.011 2.6669 134.092C2.08097 133.188 2.08135 133.188 1.4303 133.188C1.09912 133.985 0.964788 134.848 1.0393 135.707V147.912V194.084V202.898C0.838698 205.744 1.38877 208.593 2.63472 211.164C3.76438 212.877 5.14663 214.411 6.73591 215.717C7.02456 215.992 7.32897 216.251 7.64747 216.491C8.9618 217.513 10.3551 218.431 11.8142 219.236C13.6591 220.232 15.5738 221.095 17.5434 221.819C19.6682 222.606 21.8431 223.253 24.0538 223.756C34.0668 225.953 44.4683 225.698 54.3596 223.014C55.8271 222.545 57.1171 221.647 58.0587 220.436C59.0003 219.225 59.549 217.76 59.633 216.233V210.583L59.8286 149.074C59.7759 148.572 59.6441 148.082 59.4379 147.621Z" fill="#DEB147"/>
<path d="M17.6414 144.457C22.169 146.13 26.8955 147.215 31.7037 147.686V163.216C26.8881 162.727 22.1532 161.642 17.6088 159.987V144.425L17.6414 144.457Z" fill="#A89053"/>
<path d="M20.1154 82.7866L19.7896 83.1095L20.1154 82.7866Z" fill="#EABCA8"/>
<g opacity="0.7">
<path opacity="0.4" d="M17.3807 130.864V166.994V196.053C17.3807 201.155 17.3807 206.289 17.3807 211.455C17.3807 216.621 17.3807 222.497 17.3807 228.051C17.3807 230.731 15.1999 231.796 12.6283 230.44C11.1122 229.738 9.82596 228.626 8.91647 227.233C8.00699 225.84 7.51112 224.221 7.48517 222.562C7.48517 221.012 7.48517 219.333 7.48517 217.848V199.314V187.077C7.48517 173.161 7.48517 160.504 7.48517 156.662C7.48517 147.879 7.48522 139.162 7.94095 130.282C8.20879 125.711 9.31177 121.225 11.1962 117.044C12.9431 112.688 15.6319 108.764 19.0735 105.55C19.3042 105.265 19.5968 105.036 19.9294 104.879C20.262 104.723 20.6258 104.643 20.994 104.646C21.6125 104.646 22.101 105.033 22.459 105.969C22.5811 106.374 22.5975 106.803 22.5063 107.215C22.4152 107.627 22.2195 108.01 21.9381 108.327C18.6454 115.376 17.0835 123.1 17.3807 130.864Z" fill="white"/>
</g>
<path opacity="0.4" d="M31.7038 50.0143C31.7038 54.5023 31.7038 59.0226 31.7038 63.5753C31.6196 65.8804 31.2591 68.1674 30.6297 70.388C30.1072 72.4748 29.238 74.4608 28.058 76.2644C28.058 76.5227 27.6676 76.7811 27.4397 76.6842C27.2118 76.5873 27.049 76.5227 26.9839 76.0061C26.8524 75.6296 26.8524 75.2202 26.9839 74.8438C28.1075 71.0743 28.6022 67.1479 28.4486 63.2201V35.1617C29.3994 35.9614 30.5082 36.5553 31.7038 36.9053C31.7038 42.4265 31.7038 48.4644 31.7038 50.0143Z" fill="white"/>
<path d="M53.6438 9.1052V28.8978C53.5314 30.2039 53.0754 31.4578 52.3214 32.5344C51.5674 33.6109 50.5419 34.4723 49.3471 35.0326C46.4303 36.5494 43.2366 37.4709 39.9546 37.7427C36.6727 38.0144 33.369 37.6309 30.2391 36.6147C29.638 36.4423 29.0504 36.2265 28.4811 35.9689L27.1138 35.3231C26.8874 35.1982 26.67 35.0579 26.4629 34.9034C26.0214 34.6282 25.5973 34.3263 25.1933 33.9993C24.3409 33.4063 23.6388 32.6253 23.1417 31.7178C22.6447 30.8102 22.3663 29.8008 22.3287 28.7687V8.97607C22.3786 9.99658 22.6624 10.9924 23.1588 11.8876C23.6552 12.7828 24.3511 13.5539 25.1933 14.1422C25.597 14.4795 26.021 14.7922 26.4629 15.0785C26.692 15.2437 26.9311 15.3947 27.179 15.5305C27.5968 15.7673 28.0321 15.9724 28.4811 16.144C29.045 16.4226 29.6335 16.6496 30.2391 16.8221C33.3764 17.8522 36.6906 18.2458 39.9844 17.9796C43.2783 17.7133 46.4845 16.7926 49.4123 15.2722C50.5974 14.698 51.6107 13.8271 52.3528 12.7456C53.0949 11.6641 53.5399 10.4094 53.6438 9.1052Z" fill="#BD963C"/>
<path opacity="0.4" d="M28.416 16.1441V35.9689L27.049 35.3232C26.8226 35.1982 26.6048 35.0579 26.3978 34.9034C25.9562 34.6283 25.5322 34.3263 25.1282 33.9994V14.1422C25.5318 14.4796 25.9558 14.7922 26.3978 15.0785C26.6268 15.2437 26.8659 15.3947 27.1138 15.5306C27.5316 15.7674 27.967 15.9724 28.416 16.1441Z" fill="white"/>
</g>
<defs>
<clipPath id="clip0_2_11714">
<rect width="75" height="243" fill="white" transform="translate(0.0957031)"/>
</clipPath>
</defs>
</svg>
